#VRML V2.0 utf8
# 3D model generated by easyeda2kicad.py (https://github.com/uPesy/easyeda2kicad.py)

Shape{
    appearance Appearance {
        material  Material 	{
            diffuseColor 0.7529411764705882 0.7529411764705882 0.7529411764705882
            specularColor 0.3764705882352941 0.3764705882352941 0.3764705882352941
            ambientIntensity 0.7529
            transparency 0.0
            shininess 0.5
        }
    }
    geometry IndexedFaceSet {
        ccw TRUE
        solid FALSE
        coord DEF co Coordinate {
            point [
                -0.6299 -0.3454 0.0, -0.6299 -0.2795 0.0, -0.4652 -0.2795 0.0, -1.2092 -1.3632 0.0, -0.4652 -1.3683 0.0, -1.9685 -1.3683 0.0, -0.6226 -1.3632 0.0, -0.5006 -1.3632 0.0, -0.5006 -0.9695 0.0, -1.9685 0.5866 0.0, -1.6535 0.5866 0.0, -1.6535 -0.2795 0.0, -0.8741 -1.3632 0.0, -0.7443 -1.3357 0.0, -0.6651 -1.361 0.0, -1.3386 -0.2795 0.0, -1.3386 -0.3454 0.0, -0.9126 -1.3632 0.0, -0.9725 -1.237 0.0, -1.151 -1.237 0.0, -0.705 -0.9837 0.0, -0.7759 -1.0314 0.0, -1.0608 -0.9695 0.0, -0.8162 -1.1094 0.0, -0.8236 -1.1713 0.0, -0.8014 -1.2704 0.0, -0.5801 -0.9695 0.0, -0.6431 -0.9719 0.0, -1.0659 -0.9695 0.0, -1.2476 -1.3632 0.0, -0.4299 -0.9695 0.0, -0.4299 -1.0099 0.0, -0.3543 -0.2795 0.0, -0.3543 -0.3454 0.0, -0.4299 -1.1714 0.0, -0.4299 -1.131 0.0, -0.2431 -1.131 0.0, -0.2431 -1.0099 0.0, 0.3543 -0.2795 0.0, 0.6299 -0.2795 0.0, 0.3543 -0.3454 0.0, 0.6299 -0.3454 0.0, 1.6535 0.5866 0.0, 1.9685 0.5866 0.0, 1.6535 -0.2795 0.0, 1.9685 -1.3683 0.0, 1.3386 -0.2795 0.0, 1.3386 -0.3454 0.0, -0.2431 -1.1714 0.0, -0.2431 -1.3228 0.0, -0.4299 -1.3228 0.0, -0.4299 -1.3632 0.0, -0.2078 -1.3632 0.0, -0.127 -1.2907 0.0, -0.0515 -1.3529 0.0, 0.4887 -0.9695 0.0, 0.4887 -1.3632 0.0, 0.0724 -1.3683 0.0, 0.302 -1.3632 0.0, 0.1334 -1.3573 0.0, 0.1717 -1.3364 0.0, 0.4534 -0.9695 0.0, 0.1342 -1.0214 0.0, 0.1952 -1.0764 0.0, 0.0469 -0.9998 0.0, 0.2206 -1.1509 0.0, 0.2212 -1.1668 0.0, 0.2008 -1.2479 0.0, 0.1466 -1.3048 0.0, 0.0693 -1.3316 0.0, -0.2078 -0.9695 0.0, -0.127 -1.0418 0.0, -0.0961 -1.2673 0.0, -0.0961 -1.0654 0.0, -0.0333 -1.3163 0.0, -0.0323 -1.016 0.0, 0.0445 -1.3329 0.0, 0.0048 -1.004 0.0, 0.0306 -1.0004 0.0, 0.1942 -1.3177 0.0, 0.2066 -1.3045 0.0, 0.302 -1.3228 0.0, 0.2446 -1.2389 0.0, 0.4534 -1.3228 0.0, 0.2566 -1.1641 0.0, 0.0447 -0.9594 0.0, -0.0513 -0.9796 0.0, -0.0917 -1.0046 0.0, 0.2312 -1.0635 0.0, 0.1639 -0.9925 0.0, 0.0629 -0.9601 0.0, -0.1147 -1.0263 0.0, -0.0055 -1.3683 0.0, 0.0245 -1.3726 0.0, -0.4652 -2.6417 0.0, 1.9685 -2.6417 0.0, 0.0443 -1.3733 0.0, -1.9685 -2.6417 0.0, -0.0067 -1.3681 0.0, -1.7717 -2.3268 1.6535, -1.9685 -2.3268 1.6535, -1.7717 -2.3268 1.279, -1.9685 -2.3268 1.279, -1.9685 -2.0345 1.026, -1.9685 -2.6417 0.8679, -1.9685 -0.9882 0.8679, -1.9685 -1.9698 1.0053, -1.9685 -1.9332 1.1201, -1.9685 -0.9882 0.9742, -1.9685 -0.2795 1.6535, -1.9685 -0.2795 1.0108, -1.9685 0.5866 0.673, -1.6929 -2.563 0.2756, -1.6929 -0.9882 0.2756, -1.6929 -2.563 0.8679, -1.6929 -0.9882 0.8679, -1.6929 -0.7612 1.378, -1.6929 -0.7612 1.6535, -1.6929 -0.9882 1.378, -1.6929 -2.248 1.6535, -1.6929 -0.9882 0.9742, -1.6929 -1.9332 1.1201, -1.6929 -1.9526 1.0592, -1.6929 -2.248 1.315, 1.6929 -2.248 1.6535, 1.6929 -0.7612 1.6535, 1.6929 -0.9882 1.378, 1.6929 -0.7612 1.378, 1.6929 -1.9526 1.0592, 1.6929 -2.248 1.315, 1.6929 -1.9332 1.1201, 1.6929 -0.9882 0.9742, -0.6299 -0.2795 1.6535, -0.3543 -0.2795 1.6535, 0.3543 -0.2795 1.6535, 0.6299 -0.2795 1.6535, -1.6535 -0.2795 1.0108, -1.3386 -0.2795 1.6535, -1.6535 0.5866 0.673, 1.9685 -0.9882 0.8679, 1.9685 -2.6417 0.8679, 1.9685 -2.3268 1.6535, 1.9685 -1.9332 1.1201, 1.9685 -0.2795 1.6535, 1.9685 -0.9882 0.9742, 1.9685 -0.2795 1.0108, 1.9685 0.5866 0.673, 1.9685 -2.3268 1.279, 1.9685 -2.0345 1.026, 1.9685 -1.9698 1.0053, 1.6535 0.5866 0.673, -1.7717 -2.6417 0.1969, -1.7717 -2.6417 0.8679, 1.7717 -2.6417 0.8679, 1.7717 -2.6417 0.1969, -0.3543 -0.3454 1.6535, 1.7717 -2.3268 1.6535, 0.6299 -0.3454 1.6535, 1.3386 -0.3454 1.6535, -1.3386 -0.3454 1.6535, 1.3386 -0.2795 1.6535, -0.6299 -0.3454 1.6535, 0.3543 -0.3454 1.6535, 1.6535 -0.2795 1.0108, -0.8583 -0.3454 0.6958, -0.8583 -0.3454 0.9477, -1.1102 -0.3454 0.6958, -1.1102 -0.3454 0.9477, 1.6929 -2.563 0.8679, 1.6929 -0.9882 0.8679, 1.6929 -2.563 0.2756, 1.6929 -0.9882 0.2756, -0.8583 -0.9882 0.6958, -1.1102 -0.9882 0.6958, -1.1102 -0.9882 0.9477, -0.8583 -0.9882 0.9477, 1.1102 -0.9882 0.6958, 0.8583 -0.9882 0.6958, 0.126 -0.9882 0.9477, -0.126 -0.9882 0.9477, -0.126 -0.9882 0.6958, 0.126 -0.9882 0.6958, 0.8583 -0.9882 0.9477, 1.1102 -0.9882 0.9477, 1.7717 -2.3268 1.279
            ]
        }
        coordIndex [
            0,1,2,-1,3,4,5,-1,6,7,4,-1,4,7,8,-1,9,10,11,-1,12,13,14,-1,9,11,5,-1,5,11,15,-1,5,15,16,-1,14,6,12,-1,12,6,4,-1,12,4,17,-1,17,4,3,-1,17,3,18,-1,18,3,19,-1,20,21,22,-1,21,23,22,-1,22,23,24,-1,22,24,12,-1,12,24,25,-1,12,25,13,-1,26,27,0,-1,27,20,0,-1,0,20,22,-1,0,22,16,-1,16,22,28,-1,16,28,5,-1,5,28,29,-1,5,29,3,-1,26,0,8,-1,8,0,2,-1,8,2,4,-1,4,2,30,-1,4,30,31,-1,2,32,33,-1,34,4,35,-1,35,4,31,-1,35,31,36,-1,36,31,37,-1,38,39,40,-1,40,39,41,-1,42,43,44,-1,44,43,45,-1,44,45,46,-1,46,45,47,-1,48,49,34,-1,34,49,50,-1,34,50,4,-1,4,50,51,-1,4,51,52,-1,52,53,54,-1,55,45,56,-1,56,45,57,-1,56,57,58,-1,58,57,59,-1,58,59,60,-1,61,33,55,-1,55,33,40,-1,55,40,45,-1,45,40,41,-1,45,41,47,-1,62,63,64,-1,64,63,65,-1,64,65,66,-1,66,67,64,-1,64,67,68,-1,64,68,69,-1,52,70,53,-1,53,70,71,-1,53,71,72,-1,72,71,73,-1,72,73,74,-1,74,73,75,-1,74,75,76,-1,76,75,77,-1,76,77,69,-1,69,77,78,-1,69,78,64,-1,60,79,58,-1,58,79,80,-1,58,80,81,-1,81,80,82,-1,81,82,83,-1,83,82,84,-1,83,84,61,-1,85,86,33,-1,33,86,87,-1,84,88,61,-1,61,88,89,-1,61,89,33,-1,33,89,90,-1,33,90,85,-1,87,91,33,-1,33,91,71,-1,33,71,2,-1,2,71,70,-1,2,70,30,-1,92,93,94,-1,45,95,57,-1,57,95,94,-1,57,94,96,-1,96,94,93,-1,97,5,94,-1,94,5,4,-1,94,4,92,-1,92,4,52,-1,92,52,98,-1,98,52,54,-1,99,100,101,-1,101,100,102,-1,103,102,100,-1,97,104,5,-1,5,104,105,-1,5,105,9,-1,106,103,107,-1,107,103,100,-1,107,100,108,-1,108,100,109,-1,108,109,105,-1,105,109,110,-1,105,110,9,-1,9,110,111,-1,112,113,114,-1,114,113,115,-1,116,117,118,-1,118,117,119,-1,120,118,121,-1,121,118,119,-1,121,119,122,-1,122,119,123,-1,124,125,126,-1,126,125,127,-1,128,129,130,-1,130,129,124,-1,130,124,131,-1,131,124,126,-1,1,132,2,-1,2,132,133,-1,2,133,32,-1,134,135,38,-1,38,135,39,-1,110,109,136,-1,136,109,137,-1,136,137,11,-1,11,137,15,-1,10,9,138,-1,138,9,111,-1,138,111,136,-1,136,111,110,-1,43,139,45,-1,45,139,140,-1,45,140,95,-1,141,142,143,-1,143,142,144,-1,143,144,145,-1,145,144,139,-1,145,139,146,-1,146,139,43,-1,141,147,142,-1,142,147,148,-1,142,148,149,-1,150,146,42,-1,42,146,43,-1,151,152,104,-1,140,153,95,-1,95,153,154,-1,95,154,94,-1,94,154,151,-1,94,151,97,-1,97,151,104,-1,155,133,132,-1,125,124,156,-1,117,125,157,-1,157,125,158,-1,117,159,137,-1,160,158,143,-1,143,158,125,-1,143,125,141,-1,141,125,156,-1,159,117,161,-1,132,161,155,-1,155,161,117,-1,155,117,162,-1,162,117,157,-1,162,157,134,-1,134,157,135,-1,99,119,100,-1,100,119,117,-1,100,117,109,-1,109,117,137,-1,44,46,163,-1,163,46,160,-1,163,160,145,-1,145,160,143,-1,163,145,150,-1,150,145,146,-1,10,138,11,-1,11,138,136,-1,44,163,42,-1,42,163,150,-1,16,15,159,-1,159,15,137,-1,1,0,132,-1,132,0,161,-1,0,164,165,-1,164,0,166,-1,166,0,16,-1,166,16,167,-1,167,16,159,-1,167,159,165,-1,165,159,161,-1,165,161,0,-1,168,169,170,-1,170,169,171,-1,170,171,112,-1,112,171,113,-1,120,108,105,-1,171,172,113,-1,113,172,173,-1,113,173,115,-1,105,115,120,-1,120,115,173,-1,120,173,118,-1,118,173,174,-1,118,174,175,-1,171,176,177,-1,178,118,179,-1,179,118,175,-1,179,175,180,-1,175,172,180,-1,180,172,171,-1,180,171,181,-1,181,171,177,-1,181,177,178,-1,178,177,182,-1,178,182,118,-1,118,182,183,-1,139,144,169,-1,169,144,131,-1,176,171,183,-1,183,171,169,-1,183,169,118,-1,118,169,131,-1,118,131,126,-1,184,147,156,-1,156,147,141,-1,114,115,152,-1,152,115,105,-1,152,105,104,-1,169,168,139,-1,139,168,153,-1,139,153,140,-1,127,116,126,-1,126,116,118,-1,116,127,117,-1,117,127,125,-1,
        ]
    }
}
Shape{
    appearance Appearance {
        material  Material 	{
            diffuseColor 0.796078431372549 0.8235294117647058 0.9372549019607843
            specularColor 0.396078431372549 0.4117647058823529 0.4666666666666667
            ambientIntensity 0.8283
            transparency 0.0
            shininess 0.5
        }
    }
    geometry IndexedFaceSet {
        ccw TRUE
        solid FALSE
        coord DEF co Coordinate {
            point [
                -1.0315 -2.3268 0.869, -1.0315 -2.3268 0.7745, -0.937 -2.3268 0.869, -0.937 -2.3268 0.7745, -1.1102 -2.248 0.9477, -1.1102 -0.9882 0.9477, -1.1102 -2.248 0.6958, -1.1102 -0.9882 0.6958, -0.8583 -2.248 0.6958, -0.8583 -0.9882 0.6958, -0.8583 -2.248 0.9477, -0.8583 -0.9882 0.9477, -0.8583 -0.3454 0.9477, -0.8583 -0.1142 0.9477, -1.1102 -0.3454 0.9477, -1.1102 -0.1142 0.9477, -1.1102 -0.3454 0.6958, -1.1102 -0.248 0.6958, -0.8583 -0.3454 0.6958, -0.8583 -0.248 0.6958, -0.8583 -0.1299 -1.1811, -0.8583 0.122 -1.1811, -0.8583 -0.1299 0.5777, -0.8583 0.122 0.7115, -0.8583 -0.1457 0.6367, -0.8583 0.0904 0.8296, -0.8583 -0.189 0.6799, -0.8583 0.0039 0.9161, -1.1102 -0.189 0.6799, -1.1102 0.0039 0.9161, -1.1102 -0.1457 0.6367, -1.1102 0.0904 0.8296, -1.1102 -0.1299 0.5777, -1.1102 0.122 0.7115, -1.1102 -0.1299 -1.1811, -1.1102 0.122 -1.1811, -1.0315 -0.0512 -1.2598, -1.0315 0.0433 -1.2598, -0.937 -0.0512 -1.2598, -0.937 0.0433 -1.2598
            ]
        }
        coordIndex [
            0,1,2,-1,2,1,3,-1,4,5,6,-1,6,5,7,-1,8,9,10,-1,10,9,11,-1,6,7,8,-1,8,7,9,-1,10,11,4,-1,4,11,5,-1,12,13,14,-1,14,13,15,-1,16,17,18,-1,18,17,19,-1,20,21,22,-1,22,21,23,-1,22,23,24,-1,24,23,25,-1,24,25,26,-1,26,25,27,-1,26,27,19,-1,19,27,13,-1,19,13,18,-1,18,13,12,-1,16,14,17,-1,17,14,15,-1,17,15,28,-1,28,15,29,-1,28,29,30,-1,30,29,31,-1,30,31,32,-1,32,31,33,-1,32,33,34,-1,34,33,35,-1,36,37,38,-1,38,37,39,-1,35,33,21,-1,21,33,23,-1,23,33,31,-1,23,31,25,-1,25,31,29,-1,25,29,27,-1,27,29,15,-1,27,15,13,-1,19,17,26,-1,26,17,28,-1,26,28,24,-1,24,28,30,-1,24,30,22,-1,22,30,32,-1,20,22,34,-1,34,22,32,-1,21,39,35,-1,35,39,37,-1,20,38,21,-1,21,38,39,-1,36,34,37,-1,37,34,35,-1,34,36,20,-1,20,36,38,-1,8,3,6,-1,6,3,1,-1,10,2,8,-1,8,2,3,-1,0,4,1,-1,1,4,6,-1,4,0,10,-1,10,0,2,-1,
        ]
    }
}
Shape{
    appearance Appearance {
        material  Material 	{
            diffuseColor 0.7529411764705882 0.7529411764705882 0.7529411764705882
            specularColor 0.3764705882352941 0.3764705882352941 0.3764705882352941
            ambientIntensity 0.7529
            transparency 0.0
            shininess 0.5
        }
    }
    geometry IndexedFaceSet {
        ccw TRUE
        solid FALSE
        coord DEF co Coordinate {
            point [
                1.3386 -0.3454 0.0, 1.1102 -0.3454 0.6958, 1.1102 -0.3454 0.9477, 0.8583 -0.3454 0.6958, 0.6299 -0.3454 0.0, 0.8583 -0.3454 0.9477, 0.6299 -0.3454 1.6535, 1.3386 -0.3454 1.6535, 0.6299 -0.2795 1.6535, 0.6299 -0.2795 0.0, 1.3386 -0.2795 1.6535, 1.3386 -0.2795 0.0, 0.3543 -0.3454 0.0, 0.126 -0.3454 0.6958, 0.126 -0.3454 0.9477, -0.126 -0.3454 0.6958, -0.3543 -0.3454 0.0, -0.126 -0.3454 0.9477, -0.3543 -0.3454 1.6535, 0.3543 -0.3454 1.6535, -0.3543 -0.2795 1.6535, -0.3543 -0.2795 0.0, 0.3543 -0.2795 1.6535, 0.3543 -0.2795 0.0
            ]
        }
        coordIndex [
            0,1,2,-1,1,0,3,-1,3,0,4,-1,3,4,5,-1,5,4,6,-1,5,6,2,-1,2,6,7,-1,2,7,0,-1,6,4,8,-1,8,4,9,-1,10,11,7,-1,7,11,0,-1,12,13,14,-1,13,12,15,-1,15,12,16,-1,15,16,17,-1,17,16,18,-1,17,18,14,-1,14,18,19,-1,14,19,12,-1,18,16,20,-1,20,16,21,-1,22,23,19,-1,19,23,12,-1,
        ]
    }
}
Shape{
    appearance Appearance {
        material  Material 	{
            diffuseColor 0.796078431372549 0.8235294117647058 0.9372549019607843
            specularColor 0.396078431372549 0.4117647058823529 0.4666666666666667
            ambientIntensity 0.8283
            transparency 0.0
            shininess 0.5
        }
    }
    geometry IndexedFaceSet {
        ccw TRUE
        solid FALSE
        coord DEF co Coordinate {
            point [
                0.126 -0.248 0.6958, -0.126 -0.248 0.6958, 0.126 -0.189 0.6799, -0.126 -0.189 0.6799, 0.126 -0.1457 0.6367, -0.126 -0.1457 0.6367, 0.126 -0.1299 0.5777, -0.126 -0.1299 0.5777, 0.126 -0.1299 -1.1811, -0.126 -0.1299 -1.1811, -0.0472 -0.0512 -1.2598, -0.0472 0.0433 -1.2598, 0.0472 -0.0512 -1.2598, 0.0472 0.0433 -1.2598, -0.126 0.122 -1.1811, -0.126 0.122 0.7115, 0.126 0.122 -1.1811, 0.126 0.122 0.7115, -0.126 0.0904 0.8296, 0.126 0.0904 0.8296, -0.126 0.0039 0.9161, 0.126 0.0039 0.9161, -0.126 -0.1142 0.9477, 0.126 -0.1142 0.9477, -0.126 -0.3454 0.6958, -0.126 -0.3454 0.9477, 0.126 -0.3454 0.6958, 0.126 -0.3454 0.9477, 0.126 -2.248 0.9477, 0.126 -0.9882 0.9477, -0.126 -2.248 0.9477, -0.126 -0.9882 0.9477, -0.0472 -2.3268 0.869, -0.0472 -2.3268 0.7745, 0.0472 -2.3268 0.869, 0.0472 -2.3268 0.7745, -0.126 -2.248 0.6958, -0.126 -0.9882 0.6958, 0.126 -2.248 0.6958, 0.126 -0.9882 0.6958, 1.1102 -0.248 0.6958, 0.8583 -0.248 0.6958, 1.1102 -0.189 0.6799, 0.8583 -0.189 0.6799, 1.1102 -0.1457 0.6367, 0.8583 -0.1457 0.6367, 1.1102 -0.1299 0.5777, 0.8583 -0.1299 0.5777, 1.1102 -0.1299 -1.1811, 0.8583 -0.1299 -1.1811, 0.937 -0.0512 -1.2598, 0.937 0.0433 -1.2598, 1.0315 -0.0512 -1.2598, 1.0315 0.0433 -1.2598, 0.8583 0.122 -1.1811, 0.8583 0.122 0.7115, 1.1102 0.122 -1.1811, 1.1102 0.122 0.7115, 0.8583 0.0904 0.8296, 1.1102 0.0904 0.8296, 0.8583 0.0039 0.9161, 1.1102 0.0039 0.9161, 0.8583 -0.1142 0.9477, 1.1102 -0.1142 0.9477, 0.8583 -0.3454 0.6958, 0.8583 -0.3454 0.9477, 1.1102 -0.3454 0.6958, 1.1102 -0.3454 0.9477, 1.1102 -2.248 0.9477, 1.1102 -0.9882 0.9477, 0.8583 -2.248 0.9477, 0.8583 -0.9882 0.9477, 0.937 -2.3268 0.869, 0.937 -2.3268 0.7745, 1.0315 -2.3268 0.869, 1.0315 -2.3268 0.7745, 0.8583 -2.248 0.6958, 0.8583 -0.9882 0.6958, 1.1102 -2.248 0.6958, 1.1102 -0.9882 0.6958
            ]
        }
        coordIndex [
            0,1,2,-1,2,1,3,-1,2,3,4,-1,4,3,5,-1,4,5,6,-1,6,5,7,-1,8,6,9,-1,9,6,7,-1,10,11,12,-1,12,11,13,-1,14,15,16,-1,16,15,17,-1,17,15,18,-1,17,18,19,-1,19,18,20,-1,19,20,21,-1,21,20,22,-1,21,22,23,-1,24,25,1,-1,1,25,22,-1,1,22,3,-1,3,22,20,-1,3,20,5,-1,5,20,18,-1,5,18,7,-1,7,18,15,-1,7,15,9,-1,9,15,14,-1,8,16,6,-1,6,16,17,-1,6,17,4,-1,4,17,19,-1,4,19,2,-1,2,19,21,-1,2,21,0,-1,0,21,23,-1,0,23,26,-1,26,23,27,-1,24,1,26,-1,26,1,0,-1,27,23,25,-1,25,23,22,-1,28,29,30,-1,30,29,31,-1,32,33,34,-1,34,33,35,-1,36,37,38,-1,38,37,39,-1,38,39,28,-1,28,39,29,-1,30,31,36,-1,36,31,37,-1,40,41,42,-1,42,41,43,-1,42,43,44,-1,44,43,45,-1,44,45,46,-1,46,45,47,-1,48,46,49,-1,49,46,47,-1,50,51,52,-1,52,51,53,-1,54,55,56,-1,56,55,57,-1,57,55,58,-1,57,58,59,-1,59,58,60,-1,59,60,61,-1,61,60,62,-1,61,62,63,-1,64,65,41,-1,41,65,62,-1,41,62,43,-1,43,62,60,-1,43,60,45,-1,45,60,58,-1,45,58,47,-1,47,58,55,-1,47,55,49,-1,49,55,54,-1,48,56,46,-1,46,56,57,-1,46,57,44,-1,44,57,59,-1,44,59,42,-1,42,59,61,-1,42,61,40,-1,40,61,63,-1,40,63,66,-1,66,63,67,-1,64,41,66,-1,66,41,40,-1,67,63,65,-1,65,63,62,-1,68,69,70,-1,70,69,71,-1,72,73,74,-1,74,73,75,-1,76,77,78,-1,78,77,79,-1,78,79,68,-1,68,79,69,-1,70,71,76,-1,76,71,77,-1,16,13,14,-1,14,13,11,-1,8,12,16,-1,16,12,13,-1,10,9,11,-1,11,9,14,-1,9,10,8,-1,8,10,12,-1,38,35,36,-1,36,35,33,-1,28,34,38,-1,38,34,35,-1,32,30,33,-1,33,30,36,-1,30,32,28,-1,28,32,34,-1,56,53,54,-1,54,53,51,-1,48,52,56,-1,56,52,53,-1,50,49,51,-1,51,49,54,-1,49,50,48,-1,48,50,52,-1,78,75,76,-1,76,75,73,-1,68,74,78,-1,78,74,75,-1,72,70,73,-1,73,70,76,-1,70,72,68,-1,68,72,74,-1,
        ]
    }
}
Shape{
    appearance Appearance {
        material  Material 	{
            diffuseColor 0.7529411764705882 0.7529411764705882 0.7529411764705882
            specularColor 0.3764705882352941 0.3764705882352941 0.3764705882352941
            ambientIntensity 0.7529
            transparency 0.0
            shininess 0.5
        }
    }
    geometry IndexedFaceSet {
        ccw TRUE
        solid FALSE
        coord DEF co Coordinate {
            point [
                1.7449 -1.9698 1.0053, 1.9685 -1.9698 1.0053, 1.7717 -2.0345 1.026, 1.9685 -2.0345 1.026, 1.9685 -1.9332 1.1201, 1.6929 -1.9526 1.0592, 1.6929 -1.9332 1.1201, 1.9685 -0.9882 0.9742, 1.6929 -0.9882 0.9742, 1.7717 -2.3268 1.279, 1.9685 -2.3268 1.279, -1.7449 -1.9698 1.0053, -1.9685 -1.9698 1.0053, -1.6929 -1.9526 1.0592, -1.9685 -1.9332 1.1201, -1.6929 -1.9332 1.1201, -1.7717 -2.0345 1.026, -1.9685 -2.0345 1.026, -1.7717 -2.3268 1.279, -1.9685 -2.3268 1.279, -1.9685 -0.9882 0.9742, -1.6929 -0.9882 0.9742, -1.0608 -0.9695 0.0394, -1.0659 -0.9695 0.0394, -1.0608 -0.9695 0.0, -1.0659 -0.9695 0.0, -1.2476 -1.3632 0.0394, -1.2476 -1.3632 0.0, -1.2092 -1.3632 0.0394, -1.2092 -1.3632 0.0, -1.151 -1.237 0.0394, -1.151 -1.237 0.0, -0.9725 -1.237 0.0394, -0.9725 -1.237 0.0, -0.9126 -1.3632 0.0394, -0.9126 -1.3632 0.0, -0.8741 -1.3632 0.0394, -0.8741 -1.3632 0.0, -1.1324 -1.1967 0.0394, -0.9917 -1.1967 0.0394, -1.063 -1.0463 0.0394, -1.1324 -1.1967 0.0, -1.063 -1.0463 0.0, -0.9917 -1.1967 0.0, -0.6226 -1.3632 0.0394, -0.5006 -1.3632 0.0394, -0.6226 -1.3632 0.0, -0.5006 -1.3632 0.0, -0.5006 -0.9695 0.0394, -0.5006 -0.9695 0.0, -0.5801 -0.9695 0.0394, -0.5801 -0.9695 0.0, -0.705 -0.9837 0.0394, -0.705 -0.9837 0.0, -0.6431 -0.9719 0.0, -0.6431 -0.9719 0.0394, -0.8236 -1.1713 0.0394, -0.8236 -1.1713 0.0, -0.8162 -1.1094 0.0, -0.8162 -1.1094 0.0394, -0.7759 -1.0314 0.0, -0.7759 -1.0314 0.0394, -0.6651 -1.361 0.0, -0.6651 -1.361 0.0394, -0.7443 -1.3357 0.0, -0.7443 -1.3357 0.0394, -0.8014 -1.2704 0.0, -0.8014 -1.2704 0.0394, -0.782 -1.2203 0.0394, -0.7499 -1.2779 0.0394, -0.6936 -1.3128 0.0394, -0.6377 -1.3212 0.0394, -0.5811 -1.3228 0.0394, -0.5359 -1.3228 0.0394, -0.5359 -1.0099 0.0394, -0.5636 -1.0099 0.0394, -0.6244 -1.0118 0.0394, -0.6846 -1.0209 0.0394, -0.7281 -1.0419 0.0394, -0.771 -1.0926 0.0394, -0.7883 -1.1713 0.0394, -0.5359 -1.0099 0.0, -0.5359 -1.3228 0.0, -0.5636 -1.0099 0.0, -0.6244 -1.0118 0.0, -0.6846 -1.0209 0.0, -0.7281 -1.0419 0.0, -0.771 -1.0926 0.0, -0.7883 -1.1713 0.0, -0.782 -1.2203 0.0, -0.7499 -1.2779 0.0, -0.6936 -1.3128 0.0, -0.6377 -1.3212 0.0, -0.5811 -1.3228 0.0, -0.2078 -1.3632 0.0394, -0.2078 -0.9695 0.0394, -0.2078 -1.3632 0.0, -0.2078 -0.9695 0.0, -0.4299 -0.9695 0.0394, -0.4299 -0.9695 0.0, -0.4299 -1.0099 0.0394, -0.4299 -1.0099 0.0, -0.2431 -1.0099 0.0394, -0.2431 -1.0099 0.0, -0.2431 -1.131 0.0394, -0.2431 -1.131 0.0, -0.4299 -1.131 0.0394, -0.4299 -1.131 0.0, -0.4299 -1.1714 0.0394, -0.4299 -1.1714 0.0, -0.2431 -1.1714 0.0394, -0.2431 -1.1714 0.0, -0.2431 -1.3228 0.0394, -0.2431 -1.3228 0.0, -0.4299 -1.3228 0.0394, -0.4299 -1.3228 0.0, -0.4299 -1.3632 0.0394, -0.4299 -1.3632 0.0, -0.127 -1.0418 0.0394, -0.127 -1.0418 0.0, -0.1147 -1.0263 0.0, -0.1147 -1.0263 0.0394, -0.0917 -1.0046 0.0, -0.0917 -1.0046 0.0394, -0.0513 -0.9796 0.0, -0.0513 -0.9796 0.0394, 0.0447 -0.9594 0.0, 0.0447 -0.9594 0.0394, -0.0961 -1.0654 0.0394, -0.0961 -1.0654 0.0, 0.0469 -0.9998 0.0394, 0.0469 -0.9998 0.0, 0.0306 -1.0004 0.0, 0.0306 -1.0004 0.0394, 0.0048 -1.004 0.0, 0.0048 -1.004 0.0394, -0.0323 -1.016 0.0, -0.0323 -1.016 0.0394, 0.2212 -1.1668 0.0394, 0.2212 -1.1668 0.0, 0.2206 -1.1509 0.0, 0.2206 -1.1509 0.0394, 0.1952 -1.0764 0.0, 0.1952 -1.0764 0.0394, 0.1342 -1.0214 0.0, 0.1342 -1.0214 0.0394, 0.0445 -1.3329 0.0394, 0.0445 -1.3329 0.0, 0.0693 -1.3316 0.0, 0.0693 -1.3316 0.0394, 0.1466 -1.3048 0.0, 0.1466 -1.3048 0.0394, 0.2008 -1.2479 0.0, 0.2008 -1.2479 0.0394, -0.0961 -1.2673 0.0394, -0.0961 -1.2673 0.0, -0.0333 -1.3163 0.0, -0.0333 -1.3163 0.0394, -0.127 -1.2907 0.0394, -0.127 -1.2907 0.0, 0.0443 -1.3733 0.0394, 0.0443 -1.3733 0.0, 0.0245 -1.3726 0.0, 0.0245 -1.3726 0.0394, -0.0055 -1.3683 0.0, -0.0067 -1.3681 0.0394, -0.0067 -1.3681 0.0, -0.0515 -1.3529 0.0, -0.0515 -1.3529 0.0394, 0.2066 -1.3045 0.0394, 0.2066 -1.3045 0.0, 0.1942 -1.3177 0.0, 0.1942 -1.3177 0.0394, 0.1717 -1.3364 0.0, 0.1717 -1.3364 0.0394, 0.1334 -1.3573 0.0, 0.1334 -1.3573 0.0394, 0.0724 -1.3683 0.0, 0.2566 -1.1641 0.0394, 0.2566 -1.1641 0.0, 0.2446 -1.2389 0.0, 0.2446 -1.2389 0.0394, 0.0629 -0.9601 0.0, 0.0629 -0.9601 0.0394, 0.1639 -0.9925 0.0, 0.1639 -0.9925 0.0394, 0.2312 -1.0635 0.0, 0.2312 -1.0635 0.0394, 0.4887 -1.3632 0.0394, 0.4887 -0.9695 0.0394, 0.4887 -1.3632 0.0, 0.4887 -0.9695 0.0, 0.4534 -0.9695 0.0394, 0.4534 -0.9695 0.0, 0.4534 -1.3228 0.0394, 0.4534 -1.3228 0.0, 0.302 -1.3228 0.0394, 0.302 -1.3228 0.0, 0.302 -1.3632 0.0394, 0.302 -1.3632 0.0, 1.6929 -2.248 1.315, 1.6929 -2.248 1.6535, 1.7717 -2.3268 1.6535, -1.6929 -2.248 1.315, -1.7717 -2.3268 1.6535, -1.6929 -2.248 1.6535, 1.6929 -2.563 0.2756, 1.7717 -2.6417 0.1969, 1.6929 -2.563 0.8679, 1.7717 -2.6417 0.8679, -1.6929 -2.563 0.2756, -1.7717 -2.6417 0.1969, -1.7717 -2.6417 0.8679, -1.6929 -2.563 0.8679
            ]
        }
        coordIndex [
            0,1,2,-1,2,1,3,-1,1,0,4,-1,4,0,5,-1,4,5,6,-1,4,6,7,-1,7,6,8,-1,2,3,9,-1,9,3,10,-1,11,12,13,-1,13,12,14,-1,13,14,15,-1,16,17,11,-1,11,17,12,-1,18,19,16,-1,16,19,17,-1,14,20,15,-1,15,20,21,-1,22,23,24,-1,24,23,25,-1,23,26,25,-1,25,26,27,-1,26,28,27,-1,27,28,29,-1,28,30,29,-1,29,30,31,-1,30,32,31,-1,31,32,33,-1,32,34,33,-1,33,34,35,-1,34,36,35,-1,35,36,37,-1,36,22,37,-1,37,22,24,-1,38,26,23,-1,22,39,23,-1,23,39,40,-1,23,40,38,-1,36,34,32,-1,28,26,30,-1,30,26,38,-1,30,38,32,-1,32,38,39,-1,32,39,36,-1,36,39,22,-1,38,40,41,-1,41,40,42,-1,39,38,43,-1,43,38,41,-1,40,39,42,-1,42,39,43,-1,44,45,46,-1,46,45,47,-1,45,48,47,-1,47,48,49,-1,48,50,49,-1,49,50,51,-1,52,53,54,-1,52,54,55,-1,55,54,51,-1,55,51,50,-1,56,57,58,-1,56,58,59,-1,59,58,60,-1,59,60,61,-1,61,60,53,-1,61,53,52,-1,44,46,62,-1,44,62,63,-1,63,62,64,-1,63,64,65,-1,65,64,66,-1,65,66,67,-1,67,66,57,-1,67,57,56,-1,68,69,65,-1,65,69,70,-1,65,70,63,-1,63,70,71,-1,63,71,44,-1,44,71,72,-1,44,72,45,-1,45,72,73,-1,45,73,48,-1,48,73,74,-1,48,74,50,-1,50,74,75,-1,50,75,55,-1,55,75,76,-1,55,76,52,-1,52,76,77,-1,52,77,61,-1,61,77,78,-1,61,78,59,-1,59,78,79,-1,59,79,56,-1,56,79,80,-1,56,80,67,-1,67,80,68,-1,67,68,65,-1,74,73,81,-1,81,73,82,-1,75,74,83,-1,83,74,81,-1,75,83,84,-1,75,84,76,-1,76,84,85,-1,76,85,77,-1,77,85,86,-1,77,86,78,-1,78,86,87,-1,78,87,79,-1,79,87,88,-1,79,88,80,-1,80,88,89,-1,80,89,68,-1,68,89,90,-1,68,90,69,-1,69,90,91,-1,69,91,70,-1,70,91,92,-1,70,92,71,-1,71,92,93,-1,71,93,72,-1,73,72,82,-1,82,72,93,-1,94,95,96,-1,96,95,97,-1,95,98,97,-1,97,98,99,-1,98,100,99,-1,99,100,101,-1,100,102,101,-1,101,102,103,-1,102,104,103,-1,103,104,105,-1,104,106,105,-1,105,106,107,-1,106,108,107,-1,107,108,109,-1,108,110,109,-1,109,110,111,-1,110,112,111,-1,111,112,113,-1,112,114,113,-1,113,114,115,-1,114,116,115,-1,115,116,117,-1,116,94,117,-1,117,94,96,-1,94,116,114,-1,114,112,94,-1,94,112,110,-1,94,110,95,-1,100,98,102,-1,102,98,95,-1,102,95,104,-1,104,95,110,-1,104,110,106,-1,106,110,108,-1,118,119,120,-1,118,120,121,-1,121,120,122,-1,121,122,123,-1,123,122,124,-1,123,124,125,-1,125,124,126,-1,125,126,127,-1,118,128,119,-1,119,128,129,-1,130,131,132,-1,130,132,133,-1,133,132,134,-1,133,134,135,-1,135,134,136,-1,135,136,137,-1,137,136,129,-1,137,129,128,-1,138,139,140,-1,138,140,141,-1,141,140,142,-1,141,142,143,-1,143,142,144,-1,143,144,145,-1,145,144,131,-1,145,131,130,-1,146,147,148,-1,146,148,149,-1,149,148,150,-1,149,150,151,-1,151,150,152,-1,151,152,153,-1,153,152,139,-1,153,139,138,-1,154,155,156,-1,154,156,157,-1,157,156,147,-1,157,147,146,-1,154,158,155,-1,155,158,159,-1,160,161,162,-1,160,162,163,-1,163,162,164,-1,163,164,165,-1,164,166,165,-1,165,166,167,-1,165,167,168,-1,168,167,159,-1,168,159,158,-1,169,170,171,-1,169,171,172,-1,172,171,173,-1,172,173,174,-1,174,173,175,-1,174,175,176,-1,176,175,160,-1,160,175,177,-1,160,177,161,-1,178,179,180,-1,178,180,181,-1,181,180,170,-1,181,170,169,-1,127,126,182,-1,127,182,183,-1,183,182,184,-1,183,184,185,-1,185,184,186,-1,185,186,187,-1,187,186,179,-1,187,179,178,-1,158,154,168,-1,168,154,157,-1,178,181,153,-1,153,181,151,-1,151,181,169,-1,151,169,172,-1,128,118,121,-1,128,121,137,-1,137,121,123,-1,137,123,125,-1,172,174,151,-1,151,174,176,-1,151,176,149,-1,149,176,160,-1,149,160,146,-1,146,160,163,-1,146,163,157,-1,157,163,165,-1,157,165,168,-1,153,138,178,-1,178,138,141,-1,178,141,187,-1,187,141,143,-1,187,143,185,-1,185,143,145,-1,185,145,183,-1,183,145,130,-1,183,130,127,-1,127,130,133,-1,127,133,125,-1,125,133,135,-1,125,135,137,-1,188,189,190,-1,190,189,191,-1,189,192,191,-1,191,192,193,-1,192,194,193,-1,193,194,195,-1,194,196,195,-1,195,196,197,-1,196,198,197,-1,197,198,199,-1,198,188,199,-1,199,188,190,-1,192,189,194,-1,194,189,188,-1,194,188,196,-1,196,188,198,-1,42,43,41,-1,81,82,83,-1,83,82,93,-1,83,93,84,-1,84,93,92,-1,84,92,85,-1,91,90,92,-1,92,90,89,-1,92,89,88,-1,88,87,92,-1,92,87,86,-1,92,86,85,-1,200,9,201,-1,201,9,202,-1,9,200,2,-1,2,200,5,-1,2,5,0,-1,18,203,204,-1,204,203,205,-1,11,13,16,-1,16,13,203,-1,16,203,18,-1,206,207,208,-1,208,207,209,-1,210,211,206,-1,206,211,207,-1,211,210,212,-1,212,210,213,-1,
        ]
    }
}