#VRML V2.0 utf8
# 3D model generated by easyeda2kicad.py (https://github.com/uPesy/easyeda2kicad.py)

Shape{
    appearance Appearance {
        material  Material 	{
            diffuseColor 0.7529411764705882 0.7529411764705882 0.7529411764705882
            specularColor 0.3764705882352941 0.3764705882352941 0.3764705882352941
            ambientIntensity 0.7529
            transparency 0.0
            shininess 0.5
        }
    }
    geometry IndexedFaceSet {
        ccw TRUE
        solid FALSE
        coord DEF co Coordinate {
            point [
                0.0758 2.5532 0.2892, 0.0758 0.9783 0.2892, 0.8445 2.5532 0.2892, 0.8445 0.9783 0.2892, 2.185 0.9783 0.2892, 2.185 2.5532 0.2892, 1.0601 0.9783 0.2892, 1.0601 2.5532 0.2892, -1.3504 0.9783 0.8767, -1.6024 0.9783 0.8767, -2.185 0.9783 1.3916, -2.185 0.9783 0.9465, 1.3504 0.9783 0.8767, 0.6181 0.9783 0.8767, 2.185 0.9783 1.3916, 0.3661 0.9783 0.8767, -1.6024 0.9783 0.6248, -1.3504 0.9783 0.6248, -1.0162 0.9783 0.397, -2.185 0.9783 0.8205, -2.4606 0.9783 0.8205, -2.4606 0.9783 0.9465, 2.185 0.9783 0.9465, 1.6024 0.9783 0.6248, 1.6024 0.9783 0.8767, -0.032 0.9783 0.397, 0.3661 0.9783 0.6248, 0.9523 0.9783 0.397, 0.6181 0.9783 0.6248, -0.6181 0.9783 0.8767, -0.3661 0.9783 0.8767, -0.3661 0.9783 0.6248, 1.3504 0.9783 0.6248, 2.185 0.9783 0.8205, 2.4606 0.9783 0.8205, 2.4606 0.9783 0.9465, -1.124 0.9783 0.2892, -2.185 0.9783 0.2892, -0.6181 0.9783 0.6248, -0.1398 0.9783 0.2892, -0.9084 0.9783 0.2892, -0.9084 2.5532 0.2892, -0.1398 2.5532 0.2892, -2.185 2.5532 0.2892, -1.124 2.5532 0.2892, -0.0632 0.2697 0.0136, -0.1181 0.2697 0.0136, -0.1181 0.3928 0.0136, -0.8661 0.3928 0.0136, -0.8661 0.2697 0.0136, -1.1024 0.2697 0.0136, -1.1024 0.3928 0.0136, -1.8504 0.3928 0.0136, -2.4606 1.5305 0.0136, -2.1457 -0.5965 0.0136, -2.4606 -0.5965 0.0136, -2.1457 0.2697 0.0136, -1.8504 0.2697 0.0136, 2.4606 1.5305 0.0136, 2.4606 -0.5965 0.0136, 2.1457 0.2697 0.0136, 2.1457 -0.5965 0.0136, 1.1024 0.3928 0.0136, 1.1024 0.2697 0.0136, 0.8661 0.2697 0.0136, 0.3966 1.5305 0.0136, 0.4266 1.5262 0.0136, 0.8661 0.3928 0.0136, 0.1181 0.3928 0.0136, -0.0632 1.5305 0.0136, 1.8504 0.2697 0.0136, 1.8504 0.3928 0.0136, 0.4904 1.5305 0.0136, 0.4463 1.5255 0.0136, 0.1181 0.2697 0.0136, -0.0278 1.8889 0.0136, 0.1589 1.8889 0.0136, 0.1589 1.7677 0.0136, -0.0278 1.7677 0.0136, -0.0278 1.7273 0.0136, -0.0278 1.9292 0.0136, -0.0632 2.6319 0.0136, 0.1942 1.9292 0.0136, 0.8555 1.9292 0.0136, 0.8908 1.9292 0.0136, 2.4606 2.6319 0.0136, 0.8908 1.5355 0.0136, 0.6224 1.7505 0.0136, 0.6233 1.732 0.0136, 0.449 1.899 0.0136, 0.614 1.7887 0.0136, 0.3059 1.6314 0.0136, 0.275 1.608 0.0136, 0.275 1.857 0.0136, 0.1589 1.7273 0.0136, 0.1589 1.5759 0.0136, -0.0278 1.5759 0.0136, -0.0278 1.5355 0.0136, 0.1942 1.5355 0.0136, 0.5844 1.6251 0.0136, 0.556 1.5991 0.0136, 0.704 1.5355 0.0136, 0.5077 1.5325 0.0136, 0.704 1.5759 0.0136, 0.5549 1.5506 0.0136, 0.5929 1.5779 0.0136, 0.3059 1.8333 0.0136, 0.3375 1.8639 0.0136, 0.3277 1.6094 0.0136, 0.3745 1.8848 0.0136, 0.3625 1.5856 0.0136, 0.4004 1.5713 0.0136, 0.4955 1.8932 0.0136, 0.5357 1.8777 0.0136, 0.6181 1.6886 0.0136, 0.6056 1.6559 0.0136, 0.3918 1.8909 0.0136, 0.4353 1.8985 0.0136, 0.4779 1.568 0.0136, 0.5179 1.5783 0.0136, 0.3953 1.5307 0.0136, 0.3505 1.5459 0.0136, 0.4782 1.9375 0.0136, 0.4468 1.9393 0.0136, 0.4465 1.5658 0.0136, 0.572 1.8522 0.0136, 0.5964 1.8236 0.0136, 0.6087 1.5943 0.0136, 0.6373 1.6375 0.0136, 0.8555 1.5759 0.0136, 0.636 1.8302 0.0136, 0.609 1.8689 0.0136, 0.568 1.9049 0.0136, 0.5263 1.9261 0.0136, 0.3895 1.9327 0.0136, 0.3536 1.9204 0.0136, 0.3107 1.8944 0.0136, 0.2866 1.8715 0.0136, 0.3098 1.5716 0.0136, 0.6531 1.6827 0.0136, 0.6586 1.7347 0.0136, 0.6521 1.7885 0.0136, -0.4006 1.6309 0.0136, -0.3738 1.5904 0.0136, -0.472 1.5355 0.0136, -0.3443 1.5644 0.0136, -0.3147 1.5491 0.0136, -0.2666 1.5381 0.0136, -0.8071 1.5355 0.0136, -0.8455 1.5355 0.0136, -0.6638 1.9292 0.0136, -2.4606 2.6319 0.0136, -0.6588 1.9292 0.0136, -0.2205 1.5355 0.0136, -0.5106 1.5355 0.0136, -0.5704 1.6617 0.0136, -0.7489 1.6617 0.0136, -0.0985 1.5355 0.0136, -0.0985 1.9292 0.0136, -0.178 1.9292 0.0136, -0.2411 1.9268 0.0136, -0.3029 1.9151 0.0136, -0.3428 1.8949 0.0136, -0.3715 1.8699 0.0136, -0.3966 1.8344 0.0136, -0.4131 1.7933 0.0136, -0.421 1.7457 0.0136, -0.4215 1.7274 0.0136, -0.416 1.6748 0.0136, -0.8661 0.2697 1.6672, -1.1024 0.2697 1.6672, -0.1181 0.2697 1.6672, 0.1181 0.2697 1.6672, 0.8661 0.2697 1.6672, 1.1024 0.2697 1.6672, -2.2638 2.3169 1.2865, -2.4606 2.3169 1.2865, -2.2638 2.3169 1.6672, -2.4606 2.3169 1.6672, 2.185 0.8209 1.3916, 2.185 0.8209 1.6672, 2.185 2.2382 1.6672, 2.185 2.2382 1.3084, 2.185 2.0422 0.9838, 2.185 2.0416 0.984, 2.185 1.8944 1.1743, 2.185 2.0001 1.0154, 2.185 2.0255 0.9912, 2.185 2.0115 1.0019, -2.185 2.2382 1.6672, -2.185 0.8209 1.6672, -2.185 0.8209 1.3916, -2.185 1.8944 1.1743, -2.185 2.2382 1.3084, -2.185 2.0001 1.0154, -2.185 2.0115 1.0019, -2.185 2.0255 0.9912, -2.185 2.0416 0.984, -2.185 2.0422 0.9838, -2.1457 0.2697 0.9898, -1.8504 0.2697 1.6672, -2.4606 0.2697 0.9898, -2.4606 0.2697 1.6672, -2.4606 -0.5965 0.5697, -2.1457 -0.5965 0.5697, 2.4606 2.1606 1.0275, 2.4606 2.3169 1.2865, 2.4606 2.3169 1.6672, 2.4606 2.6319 0.8205, 2.4606 2.1093 0.9934, 2.4606 1.8944 1.1743, 2.4606 2.0001 1.0154, 2.4606 0.2697 1.6672, 2.4606 0.2697 0.9898, 2.4606 -0.5965 0.5697, 2.4606 2.0218 0.9936, 2.4606 2.0502 0.9818, 2.4606 2.0809 0.9817, 2.2638 2.6319 0.8205, 2.2638 2.6319 0.2105, -2.2638 2.6319 0.2105, -2.2638 2.6319 0.8205, -2.4606 2.6319 0.8205, -2.4606 1.8944 1.1743, -2.4606 2.1093 0.9934, -2.4606 2.0809 0.9817, -2.4606 2.0502 0.9818, -2.4606 2.1606 1.0275, -2.4606 2.0001 1.0154, -2.4606 2.0218 0.9936, 2.1457 -0.5965 0.5697, 2.2638 2.3169 1.6672, -1.8504 0.3928 1.6672, -1.1024 0.3928 1.6672, -0.1181 0.3928 1.6672, 0.1181 0.3928 1.6672, 0.8661 0.3928 1.6672, -0.8661 0.3928 1.6672, 1.8504 0.2697 1.6672, 1.8504 0.3928 1.6672, 1.1024 0.3928 1.6672, 2.1457 0.2697 0.9898, -1.6024 0.3928 0.6248, -1.6024 0.3928 0.8767, -1.3504 0.3928 0.6248, -1.3504 0.3928 0.8767, 2.185 2.5532 0.8205, -2.185 2.5532 0.8205, 2.2638 2.3169 1.2865, -2.2638 2.1606 1.0275, -2.201 2.0589 0.9805, -2.4606 2.0416 0.984, -2.4606 2.0589 0.9805, -2.4606 2.0765 0.981, -2.2159 2.0765 0.981, -2.4606 2.0936 0.9853, -2.2283 2.0936 0.9853, -2.2375 2.1093 0.9934, -2.4606 2.0255 0.9912, -2.4606 2.0115 1.0019, 2.2638 2.1606 1.0275, 2.2375 2.1093 0.9934, 2.4606 2.0936 0.9853, 2.2283 2.0936 0.9853, 2.4606 2.0765 0.981, 2.2159 2.0765 0.981, 2.4606 2.0589 0.9805, 2.201 2.0589 0.9805, 2.4606 2.0416 0.984, 2.4606 2.0255 0.9912, 2.4606 2.0115 1.0019
            ]
        }
        coordIndex [
            0,1,2,-1,2,1,3,-1,4,5,6,-1,6,5,7,-1,8,9,10,-1,10,9,11,-1,12,13,14,-1,14,13,15,-1,16,17,18,-1,19,20,21,-1,22,23,14,-1,14,23,24,-1,14,24,12,-1,1,25,3,-1,3,25,26,-1,3,26,27,-1,27,26,28,-1,29,14,30,-1,30,14,15,-1,30,15,31,-1,28,13,27,-1,27,13,12,-1,27,12,6,-1,6,12,32,-1,6,32,4,-1,4,32,23,-1,4,23,33,-1,33,23,22,-1,33,22,34,-1,34,22,35,-1,18,36,16,-1,16,36,37,-1,16,37,9,-1,9,37,19,-1,9,19,11,-1,11,19,21,-1,15,26,31,-1,31,26,25,-1,31,25,38,-1,38,25,39,-1,10,14,8,-1,8,14,29,-1,8,29,17,-1,17,29,38,-1,17,38,18,-1,18,38,39,-1,18,39,40,-1,41,40,42,-1,42,40,39,-1,43,37,44,-1,44,37,36,-1,45,46,47,-1,48,49,50,-1,51,52,53,-1,54,55,56,-1,56,55,53,-1,56,53,57,-1,57,53,52,-1,58,59,60,-1,60,59,61,-1,62,63,64,-1,65,66,62,-1,67,68,69,-1,60,70,58,-1,58,70,71,-1,58,71,72,-1,72,71,62,-1,72,62,73,-1,73,62,66,-1,50,51,48,-1,48,51,53,-1,48,53,47,-1,47,53,69,-1,47,69,45,-1,45,69,68,-1,45,68,74,-1,75,76,77,-1,78,79,69,-1,77,78,75,-1,75,78,69,-1,75,69,80,-1,80,69,81,-1,80,81,82,-1,83,81,84,-1,84,81,85,-1,84,85,86,-1,87,88,89,-1,87,89,90,-1,91,92,93,-1,94,95,79,-1,79,95,96,-1,79,96,69,-1,69,96,97,-1,69,97,98,-1,89,99,100,-1,85,58,86,-1,86,58,72,-1,86,72,101,-1,101,72,102,-1,101,102,103,-1,103,102,104,-1,103,104,105,-1,93,106,91,-1,91,106,107,-1,91,107,108,-1,108,107,109,-1,108,109,110,-1,110,109,111,-1,89,112,113,-1,88,114,89,-1,89,114,115,-1,89,115,99,-1,116,117,118,-1,118,117,89,-1,118,89,119,-1,119,89,100,-1,64,67,62,-1,62,67,69,-1,62,69,65,-1,65,69,98,-1,65,98,120,-1,120,98,121,-1,122,123,81,-1,116,118,109,-1,109,118,124,-1,109,124,111,-1,113,125,89,-1,89,125,126,-1,89,126,90,-1,105,127,103,-1,103,127,128,-1,103,128,129,-1,130,131,83,-1,83,131,132,-1,83,132,81,-1,81,132,133,-1,81,133,122,-1,123,134,81,-1,81,134,135,-1,81,135,136,-1,136,137,81,-1,81,137,93,-1,81,93,82,-1,82,93,92,-1,82,92,98,-1,98,92,138,-1,98,138,121,-1,128,139,129,-1,129,139,140,-1,129,140,83,-1,83,140,141,-1,83,141,130,-1,142,143,144,-1,143,145,144,-1,144,145,146,-1,144,146,147,-1,148,69,149,-1,149,69,53,-1,149,53,150,-1,150,53,151,-1,150,151,152,-1,152,151,81,-1,147,153,144,-1,144,153,69,-1,144,69,154,-1,154,69,148,-1,154,148,155,-1,155,148,156,-1,153,157,69,-1,69,157,158,-1,69,158,81,-1,81,158,159,-1,159,160,81,-1,81,160,161,-1,81,161,152,-1,152,161,162,-1,162,163,152,-1,152,163,164,-1,152,164,165,-1,165,166,152,-1,152,166,167,-1,152,167,144,-1,144,167,168,-1,144,168,142,-1,169,170,49,-1,49,170,50,-1,46,74,171,-1,171,74,172,-1,64,63,173,-1,173,63,174,-1,175,176,177,-1,177,176,178,-1,179,180,14,-1,14,180,181,-1,182,183,184,-1,22,14,185,-1,185,14,181,-1,185,181,186,-1,186,181,182,-1,184,187,182,-1,182,187,188,-1,182,188,186,-1,189,190,10,-1,10,190,191,-1,10,11,189,-1,189,11,192,-1,189,192,193,-1,193,192,194,-1,193,194,195,-1,195,196,193,-1,193,196,197,-1,193,197,198,-1,56,57,199,-1,199,57,200,-1,199,200,201,-1,201,200,202,-1,203,55,204,-1,204,55,54,-1,205,206,207,-1,85,208,59,-1,59,208,34,-1,209,210,211,-1,209,205,210,-1,210,205,207,-1,210,207,35,-1,35,207,212,-1,35,212,34,-1,34,212,213,-1,34,213,59,-1,59,213,214,-1,211,215,209,-1,209,215,216,-1,209,216,217,-1,218,208,219,-1,219,208,85,-1,219,85,220,-1,220,85,151,-1,220,151,221,-1,221,151,222,-1,222,151,20,-1,20,151,55,-1,55,203,20,-1,20,203,201,-1,20,201,21,-1,21,201,202,-1,21,202,223,-1,223,202,178,-1,223,178,176,-1,224,225,226,-1,176,227,223,-1,223,227,224,-1,223,224,228,-1,228,224,226,-1,228,226,229,-1,230,61,214,-1,214,61,59,-1,231,181,207,-1,207,181,180,-1,207,180,212,-1,190,202,200,-1,189,177,190,-1,190,177,178,-1,190,178,202,-1,200,232,190,-1,190,232,233,-1,190,233,180,-1,234,171,172,-1,235,236,180,-1,172,235,234,-1,234,235,180,-1,234,180,237,-1,237,180,233,-1,237,233,169,-1,169,233,170,-1,238,212,239,-1,239,212,180,-1,239,180,240,-1,240,180,236,-1,240,236,174,-1,174,236,173,-1,204,54,199,-1,199,54,56,-1,213,212,241,-1,241,212,238,-1,241,238,60,-1,60,238,70,-1,241,60,230,-1,230,60,61,-1,213,241,214,-1,214,241,230,-1,203,204,201,-1,201,204,199,-1,57,52,200,-1,200,52,232,-1,52,242,243,-1,242,52,244,-1,244,52,51,-1,244,51,245,-1,245,51,233,-1,245,233,243,-1,243,233,232,-1,243,232,52,-1,51,50,233,-1,233,50,170,-1,5,4,246,-1,246,4,33,-1,247,19,43,-1,43,19,37,-1,231,207,248,-1,248,207,206,-1,246,33,218,-1,218,33,34,-1,218,34,208,-1,221,222,247,-1,247,222,20,-1,247,20,19,-1,249,227,175,-1,175,227,176,-1,223,192,21,-1,21,192,11,-1,228,194,223,-1,223,194,192,-1,250,198,251,-1,251,252,250,-1,250,252,253,-1,250,253,254,-1,254,253,255,-1,254,255,256,-1,256,255,224,-1,256,224,257,-1,198,197,251,-1,251,197,196,-1,251,196,258,-1,258,196,195,-1,258,195,259,-1,259,195,194,-1,259,194,228,-1,257,224,249,-1,249,224,227,-1,260,205,261,-1,261,205,209,-1,261,209,262,-1,261,262,263,-1,263,262,264,-1,263,264,265,-1,265,264,266,-1,265,266,267,-1,267,266,183,-1,183,266,268,-1,183,268,184,-1,184,268,269,-1,184,269,187,-1,187,269,270,-1,187,270,188,-1,188,270,211,-1,188,211,186,-1,210,185,211,-1,211,185,186,-1,35,22,210,-1,210,22,185,-1,248,206,260,-1,260,206,205,-1,179,191,180,-1,180,191,190,-1,179,14,191,-1,191,14,10,-1,
        ]
    }
}
Shape{
    appearance Appearance {
        material  Material 	{
            diffuseColor 0.796078431372549 0.8235294117647058 0.9372549019607843
            specularColor 0.396078431372549 0.4117647058823529 0.4666666666666667
            ambientIntensity 0.8283
            transparency 0.0
            shininess 0.5
        }
    }
    geometry IndexedFaceSet {
        ccw TRUE
        solid FALSE
        coord DEF co Coordinate {
            point [
                -1.5236 2.3753 0.7035, -1.5236 2.3753 0.798, -1.4291 2.3753 0.7035, -1.4291 2.3753 0.798, -1.3504 2.2966 0.8767, -1.3504 0.9783 0.8767, -1.3504 2.2966 0.6248, -1.3504 0.9783 0.6248, -1.6024 2.2966 0.6248, -1.6024 0.9783 0.6248, -1.6024 2.2966 0.8767, -1.6024 0.9783 0.8767, -1.6024 0.3928 0.8767, -1.6024 0.1043 0.8767, -1.3504 0.3928 0.8767, -1.3504 0.1043 0.8767, -1.3504 0.3928 0.6248, -1.3504 0.2382 0.6248, -1.6024 0.3928 0.6248, -1.6024 0.2382 0.6248, -1.3504 -0.1319 0.6405, -1.3504 -0.1319 -1.0236, -1.3504 0.1201 -1.0236, -1.3504 0.193 0.6158, -1.3504 0.0139 0.8588, -1.3504 0.1547 0.5902, -1.3504 0.1201 0.5067, -1.3504 0.1291 0.5519, -1.3504 -0.1139 0.7309, -1.3504 -0.0627 0.8076, -1.6024 0.1201 -1.0236, -1.6024 -0.1319 -1.0236, -1.6024 0.1201 0.5067, -1.6024 -0.1319 0.6405, -1.6024 0.1291 0.5519, -1.6024 -0.1139 0.7309, -1.6024 0.1547 0.5902, -1.6024 0.193 0.6158, -1.6024 0.0139 0.8588, -1.6024 -0.0627 0.8076, -1.5236 -0.0531 -1.1024, -1.5236 0.0413 -1.1024, -1.4291 -0.0531 -1.1024, -1.4291 0.0413 -1.1024
            ]
        }
        coordIndex [
            0,1,2,-1,2,1,3,-1,4,5,6,-1,6,5,7,-1,8,9,10,-1,10,9,11,-1,6,7,8,-1,8,7,9,-1,10,11,4,-1,4,11,5,-1,12,13,14,-1,14,13,15,-1,16,17,18,-1,18,17,19,-1,20,21,22,-1,16,14,17,-1,17,14,15,-1,17,15,23,-1,23,15,24,-1,23,24,25,-1,22,26,20,-1,20,26,27,-1,20,27,28,-1,28,27,25,-1,28,25,29,-1,29,25,24,-1,13,12,18,-1,30,31,32,-1,32,31,33,-1,32,33,34,-1,34,33,35,-1,34,35,36,-1,18,19,13,-1,13,19,37,-1,13,37,38,-1,38,37,36,-1,38,36,39,-1,39,36,35,-1,15,13,38,-1,15,38,24,-1,24,38,39,-1,24,39,29,-1,29,39,35,-1,29,35,28,-1,28,35,33,-1,28,33,20,-1,21,20,31,-1,31,20,33,-1,40,41,42,-1,42,41,43,-1,30,32,22,-1,22,32,26,-1,26,32,27,-1,27,32,34,-1,27,34,25,-1,25,34,36,-1,25,36,23,-1,23,36,37,-1,23,37,17,-1,17,37,19,-1,4,3,10,-1,10,3,1,-1,6,2,4,-1,4,2,3,-1,0,8,1,-1,1,8,10,-1,8,0,6,-1,6,0,2,-1,22,43,30,-1,30,43,41,-1,21,42,22,-1,22,42,43,-1,40,31,41,-1,41,31,30,-1,31,40,21,-1,21,40,42,-1,
        ]
    }
}
Shape{
    appearance Appearance {
        material  Material 	{
            diffuseColor 0.7529411764705882 0.7529411764705882 0.7529411764705882
            specularColor 0.3764705882352941 0.3764705882352941 0.3764705882352941
            ambientIntensity 0.7529
            transparency 0.0
            shininess 0.5
        }
    }
    geometry IndexedFaceSet {
        ccw TRUE
        solid FALSE
        coord DEF co Coordinate {
            point [
                1.1024 0.3928 0.0136, 1.3504 0.3928 0.6248, 1.3504 0.3928 0.8767, 1.6024 0.3928 0.6248, 1.8504 0.3928 0.0136, 1.6024 0.3928 0.8767, 1.8504 0.3928 1.6672, 1.1024 0.3928 1.6672, 1.1024 0.2697 1.6672, 1.1024 0.2697 0.0136, 1.8504 0.2697 1.6672, 1.8504 0.2697 0.0136, 0.1181 0.3928 0.0136, 0.3661 0.3928 0.6248, 0.3661 0.3928 0.8767, 0.6181 0.3928 0.6248, 0.8661 0.3928 0.0136, 0.6181 0.3928 0.8767, 0.8661 0.3928 1.6672, 0.1181 0.3928 1.6672, 0.1181 0.2697 1.6672, 0.1181 0.2697 0.0136, 0.8661 0.2697 1.6672, 0.8661 0.2697 0.0136, -0.8661 0.3928 0.0136, -0.6181 0.3928 0.6248, -0.6181 0.3928 0.8767, -0.3661 0.3928 0.6248, -0.1181 0.3928 0.0136, -0.3661 0.3928 0.8767, -0.1181 0.3928 1.6672, -0.8661 0.3928 1.6672, -0.8661 0.2697 1.6672, -0.8661 0.2697 0.0136, -0.1181 0.2697 1.6672, -0.1181 0.2697 0.0136
            ]
        }
        coordIndex [
            0,1,2,-1,1,0,3,-1,3,0,4,-1,3,4,5,-1,5,4,6,-1,5,6,2,-1,2,6,7,-1,2,7,0,-1,8,9,7,-1,7,9,0,-1,6,4,10,-1,10,4,11,-1,12,13,14,-1,13,12,15,-1,15,12,16,-1,15,16,17,-1,17,16,18,-1,17,18,14,-1,14,18,19,-1,14,19,12,-1,20,21,19,-1,19,21,12,-1,18,16,22,-1,22,16,23,-1,24,25,26,-1,25,24,27,-1,27,24,28,-1,27,28,29,-1,29,28,30,-1,29,30,26,-1,26,30,31,-1,26,31,24,-1,32,33,31,-1,31,33,24,-1,30,28,34,-1,34,28,35,-1,
        ]
    }
}
Shape{
    appearance Appearance {
        material  Material 	{
            diffuseColor 0.796078431372549 0.8235294117647058 0.9372549019607843
            specularColor 0.396078431372549 0.4117647058823529 0.4666666666666667
            ambientIntensity 0.8283
            transparency 0.0
            shininess 0.5
        }
    }
    geometry IndexedFaceSet {
        ccw TRUE
        solid FALSE
        coord DEF co Coordinate {
            point [
                -0.3661 0.1043 0.8767, -0.6181 0.1043 0.8767, -0.6181 0.0139 0.8588, -0.3661 0.0139 0.8588, -0.6181 -0.0627 0.8076, -0.3661 -0.0627 0.8076, -0.6181 -0.1139 0.7309, -0.3661 -0.1139 0.7309, -0.6181 -0.1319 0.6405, -0.3661 -0.1319 0.6405, -0.3661 -0.1319 -1.0236, -0.6181 -0.1319 -1.0236, -0.5394 -0.0531 -1.1024, -0.5394 0.0413 -1.1024, -0.4449 -0.0531 -1.1024, -0.4449 0.0413 -1.1024, -0.6181 0.1201 -1.0236, -0.6181 0.1201 0.5067, -0.3661 0.1201 -1.0236, -0.3661 0.1201 0.5067, -0.3661 0.1291 0.5519, -0.6181 0.1291 0.5519, -0.3661 0.1547 0.5902, -0.6181 0.1547 0.5902, -0.3661 0.193 0.6158, -0.6181 0.193 0.6158, -0.3661 0.2382 0.6248, -0.6181 0.2382 0.6248, -0.3661 0.3928 0.6248, -0.3661 0.3928 0.8767, -0.6181 0.3928 0.8767, -0.6181 0.3928 0.6248, -0.5394 2.3753 0.7035, -0.5394 2.3753 0.798, -0.4449 2.3753 0.7035, -0.4449 2.3753 0.798, -0.6181 2.2966 0.8767, -0.6181 0.9783 0.8767, -0.3661 2.2966 0.8767, -0.3661 0.9783 0.8767, -0.3661 2.2966 0.6248, -0.3661 0.9783 0.6248, -0.6181 2.2966 0.6248, -0.6181 0.9783 0.6248, 0.6181 0.1043 0.8767, 0.3661 0.1043 0.8767, 0.3661 0.0139 0.8588, 0.6181 0.0139 0.8588, 0.3661 -0.0627 0.8076, 0.6181 -0.0627 0.8076, 0.3661 -0.1139 0.7309, 0.6181 -0.1139 0.7309, 0.3661 -0.1319 0.6405, 0.6181 -0.1319 0.6405, 0.6181 -0.1319 -1.0236, 0.3661 -0.1319 -1.0236, 0.4449 -0.0531 -1.1024, 0.4449 0.0413 -1.1024, 0.5394 -0.0531 -1.1024, 0.5394 0.0413 -1.1024, 0.3661 0.1201 -1.0236, 0.3661 0.1201 0.5067, 0.6181 0.1201 -1.0236, 0.6181 0.1201 0.5067, 0.6181 0.1291 0.5519, 0.3661 0.1291 0.5519, 0.6181 0.1547 0.5902, 0.3661 0.1547 0.5902, 0.6181 0.193 0.6158, 0.3661 0.193 0.6158, 0.6181 0.2382 0.6248, 0.3661 0.2382 0.6248, 0.6181 0.3928 0.6248, 0.6181 0.3928 0.8767, 0.3661 0.3928 0.8767, 0.3661 0.3928 0.6248, 0.4449 2.3753 0.7035, 0.4449 2.3753 0.798, 0.5394 2.3753 0.7035, 0.5394 2.3753 0.798, 0.3661 2.2966 0.8767, 0.3661 0.9783 0.8767, 0.6181 2.2966 0.8767, 0.6181 0.9783 0.8767, 0.6181 2.2966 0.6248, 0.6181 0.9783 0.6248, 0.3661 2.2966 0.6248, 0.3661 0.9783 0.6248, 1.6024 0.1043 0.8767, 1.3504 0.1043 0.8767, 1.3504 0.0139 0.8588, 1.6024 0.0139 0.8588, 1.3504 -0.0627 0.8076, 1.6024 -0.0627 0.8076, 1.3504 -0.1139 0.7309, 1.6024 -0.1139 0.7309, 1.3504 -0.1319 0.6405, 1.6024 -0.1319 0.6405, 1.6024 -0.1319 -1.0236, 1.3504 -0.1319 -1.0236, 1.4291 -0.0531 -1.1024, 1.4291 0.0413 -1.1024, 1.5236 -0.0531 -1.1024, 1.5236 0.0413 -1.1024, 1.3504 0.1201 -1.0236, 1.3504 0.1201 0.5067, 1.6024 0.1201 -1.0236, 1.6024 0.1201 0.5067, 1.6024 0.1291 0.5519, 1.3504 0.1291 0.5519, 1.6024 0.1547 0.5902, 1.3504 0.1547 0.5902, 1.6024 0.193 0.6158, 1.3504 0.193 0.6158, 1.6024 0.2382 0.6248, 1.3504 0.2382 0.6248, 1.6024 0.3928 0.6248, 1.6024 0.3928 0.8767, 1.3504 0.3928 0.8767, 1.3504 0.3928 0.6248, 1.4291 2.3753 0.7035, 1.4291 2.3753 0.798, 1.5236 2.3753 0.7035, 1.5236 2.3753 0.798, 1.3504 2.2966 0.8767, 1.3504 0.9783 0.8767, 1.6024 2.2966 0.8767, 1.6024 0.9783 0.8767, 1.6024 2.2966 0.6248, 1.6024 0.9783 0.6248, 1.3504 2.2966 0.6248, 1.3504 0.9783 0.6248
            ]
        }
        coordIndex [
            0,1,2,-1,0,2,3,-1,3,2,4,-1,3,4,5,-1,5,4,6,-1,5,6,7,-1,7,6,8,-1,7,8,9,-1,10,9,11,-1,11,9,8,-1,12,13,14,-1,14,13,15,-1,16,17,18,-1,18,17,19,-1,19,17,20,-1,20,17,21,-1,20,21,22,-1,22,21,23,-1,22,23,24,-1,24,23,25,-1,24,25,26,-1,26,25,27,-1,9,10,18,-1,28,29,26,-1,26,29,0,-1,26,0,24,-1,24,0,3,-1,24,3,22,-1,18,19,9,-1,9,19,20,-1,9,20,7,-1,7,20,22,-1,7,22,5,-1,5,22,3,-1,1,30,31,-1,16,11,17,-1,17,11,8,-1,17,8,21,-1,21,8,6,-1,21,6,23,-1,31,27,1,-1,1,27,25,-1,1,25,2,-1,2,25,23,-1,2,23,4,-1,4,23,6,-1,28,26,31,-1,31,26,27,-1,30,1,29,-1,29,1,0,-1,32,33,34,-1,34,33,35,-1,36,37,38,-1,38,37,39,-1,40,41,42,-1,42,41,43,-1,38,39,40,-1,40,39,41,-1,42,43,36,-1,36,43,37,-1,44,45,46,-1,44,46,47,-1,47,46,48,-1,47,48,49,-1,49,48,50,-1,49,50,51,-1,51,50,52,-1,51,52,53,-1,54,53,55,-1,55,53,52,-1,56,57,58,-1,58,57,59,-1,60,61,62,-1,62,61,63,-1,63,61,64,-1,64,61,65,-1,64,65,66,-1,66,65,67,-1,66,67,68,-1,68,67,69,-1,68,69,70,-1,70,69,71,-1,53,54,62,-1,72,73,70,-1,70,73,44,-1,70,44,68,-1,68,44,47,-1,68,47,66,-1,62,63,53,-1,53,63,64,-1,53,64,51,-1,51,64,66,-1,51,66,49,-1,49,66,47,-1,45,74,75,-1,60,55,61,-1,61,55,52,-1,61,52,65,-1,65,52,50,-1,65,50,67,-1,75,71,45,-1,45,71,69,-1,45,69,46,-1,46,69,67,-1,46,67,48,-1,48,67,50,-1,72,70,75,-1,75,70,71,-1,74,45,73,-1,73,45,44,-1,76,77,78,-1,78,77,79,-1,80,81,82,-1,82,81,83,-1,84,85,86,-1,86,85,87,-1,82,83,84,-1,84,83,85,-1,86,87,80,-1,80,87,81,-1,88,89,90,-1,88,90,91,-1,91,90,92,-1,91,92,93,-1,93,92,94,-1,93,94,95,-1,95,94,96,-1,95,96,97,-1,98,97,99,-1,99,97,96,-1,100,101,102,-1,102,101,103,-1,104,105,106,-1,106,105,107,-1,107,105,108,-1,108,105,109,-1,108,109,110,-1,110,109,111,-1,110,111,112,-1,112,111,113,-1,112,113,114,-1,114,113,115,-1,97,98,106,-1,116,117,114,-1,114,117,88,-1,114,88,112,-1,112,88,91,-1,112,91,110,-1,106,107,97,-1,97,107,108,-1,97,108,95,-1,95,108,110,-1,95,110,93,-1,93,110,91,-1,89,118,119,-1,104,99,105,-1,105,99,96,-1,105,96,109,-1,109,96,94,-1,109,94,111,-1,119,115,89,-1,89,115,113,-1,89,113,90,-1,90,113,111,-1,90,111,92,-1,92,111,94,-1,116,114,119,-1,119,114,115,-1,118,89,117,-1,117,89,88,-1,120,121,122,-1,122,121,123,-1,124,125,126,-1,126,125,127,-1,128,129,130,-1,130,129,131,-1,126,127,128,-1,128,127,129,-1,130,131,124,-1,124,131,125,-1,38,35,36,-1,36,35,33,-1,40,34,38,-1,38,34,35,-1,32,42,33,-1,33,42,36,-1,42,32,40,-1,40,32,34,-1,18,15,16,-1,16,15,13,-1,10,14,18,-1,18,14,15,-1,12,11,13,-1,13,11,16,-1,11,12,10,-1,10,12,14,-1,82,79,80,-1,80,79,77,-1,84,78,82,-1,82,78,79,-1,76,86,77,-1,77,86,80,-1,86,76,84,-1,84,76,78,-1,62,59,60,-1,60,59,57,-1,54,58,62,-1,62,58,59,-1,56,55,57,-1,57,55,60,-1,55,56,54,-1,54,56,58,-1,126,123,124,-1,124,123,121,-1,128,122,126,-1,126,122,123,-1,120,130,121,-1,121,130,124,-1,130,120,128,-1,128,120,122,-1,106,103,104,-1,104,103,101,-1,98,102,106,-1,106,102,103,-1,100,99,101,-1,101,99,104,-1,99,100,98,-1,98,100,102,-1,
        ]
    }
}
Shape{
    appearance Appearance {
        material  Material 	{
            diffuseColor 0.7529411764705882 0.7529411764705882 0.7529411764705882
            specularColor 0.3764705882352941 0.3764705882352941 0.3764705882352941
            ambientIntensity 0.7529
            transparency 0.0
            shininess 0.5
        }
    }
    geometry IndexedFaceSet {
        ccw TRUE
        solid FALSE
        coord DEF co Coordinate {
            point [
                -0.6588 1.9292 0.053, -0.6638 1.9292 0.053, -0.6588 1.9292 0.0136, -0.6638 1.9292 0.0136, -0.8455 1.5355 0.053, -0.8455 1.5355 0.0136, -0.8071 1.5355 0.053, -0.8071 1.5355 0.0136, -0.7489 1.6617 0.053, -0.7489 1.6617 0.0136, -0.5704 1.6617 0.053, -0.5704 1.6617 0.0136, -0.5106 1.5355 0.053, -0.5106 1.5355 0.0136, -0.472 1.5355 0.053, -0.472 1.5355 0.0136, -0.7303 1.7021 0.053, -0.5896 1.7021 0.053, -0.6609 1.8525 0.053, -0.7303 1.7021 0.0136, -0.6609 1.8525 0.0136, -0.5896 1.7021 0.0136, -0.2205 1.5355 0.053, -0.0985 1.5355 0.053, -0.2205 1.5355 0.0136, -0.0985 1.5355 0.0136, -0.0985 1.9292 0.053, -0.0985 1.9292 0.0136, -0.178 1.9292 0.053, -0.178 1.9292 0.0136, -0.3029 1.9151 0.053, -0.3029 1.9151 0.0136, -0.2411 1.9268 0.0136, -0.2411 1.9268 0.053, -0.4215 1.7274 0.053, -0.4215 1.7274 0.0136, -0.421 1.7457 0.0136, -0.421 1.7457 0.053, -0.4131 1.7933 0.0136, -0.4131 1.7933 0.053, -0.3966 1.8344 0.0136, -0.3966 1.8344 0.053, -0.3715 1.8699 0.0136, -0.3715 1.8699 0.053, -0.3428 1.8949 0.0136, -0.3428 1.8949 0.053, -0.2666 1.5381 0.0136, -0.2666 1.5381 0.053, -0.3147 1.5491 0.0136, -0.3147 1.5491 0.053, -0.3443 1.5644 0.0136, -0.3443 1.5644 0.053, -0.3738 1.5904 0.0136, -0.3738 1.5904 0.053, -0.4006 1.6309 0.0136, -0.4006 1.6309 0.053, -0.416 1.6748 0.0136, -0.416 1.6748 0.053, -0.2224 1.887 0.053, -0.2825 1.8778 0.053, -0.3002 1.8714 0.053, -0.3296 1.8542 0.053, -0.3523 1.832 0.053, -0.3704 1.8032 0.053, -0.3819 1.7693 0.053, -0.3862 1.7275 0.053, -0.3859 1.7165 0.053, -0.379 1.6749 0.053, -0.3659 1.6451 0.053, -0.3464 1.6193 0.053, -0.323 1.6004 0.053, -0.2916 1.5859 0.053, -0.2357 1.5775 0.053, -0.179 1.5759 0.053, -0.1338 1.5759 0.053, -0.1338 1.8889 0.053, -0.1615 1.8889 0.053, -0.1338 1.8889 0.0136, -0.1338 1.5759 0.0136, -0.1615 1.8889 0.0136, -0.2224 1.887 0.0136, -0.2825 1.8778 0.0136, -0.3002 1.8714 0.0136, -0.3296 1.8542 0.0136, -0.3523 1.832 0.0136, -0.3704 1.8032 0.0136, -0.3819 1.7693 0.0136, -0.3862 1.7275 0.0136, -0.3859 1.7165 0.0136, -0.379 1.6749 0.0136, -0.3659 1.6451 0.0136, -0.3464 1.6193 0.0136, -0.323 1.6004 0.0136, -0.2916 1.5859 0.0136, -0.2357 1.5775 0.0136, -0.179 1.5759 0.0136, 0.1942 1.5355 0.053, 0.1942 1.9292 0.053, 0.1942 1.5355 0.0136, 0.1942 1.9292 0.0136, -0.0278 1.9292 0.053, -0.0278 1.9292 0.0136, -0.0278 1.8889 0.053, -0.0278 1.8889 0.0136, 0.1589 1.8889 0.053, 0.1589 1.8889 0.0136, 0.1589 1.7677 0.053, 0.1589 1.7677 0.0136, -0.0278 1.7677 0.053, -0.0278 1.7677 0.0136, -0.0278 1.7273 0.053, -0.0278 1.7273 0.0136, 0.1589 1.7273 0.053, 0.1589 1.7273 0.0136, 0.1589 1.5759 0.053, 0.1589 1.5759 0.0136, -0.0278 1.5759 0.053, -0.0278 1.5759 0.0136, -0.0278 1.5355 0.053, -0.0278 1.5355 0.0136, 0.275 1.857 0.053, 0.275 1.857 0.0136, 0.2866 1.8715 0.0136, 0.2866 1.8715 0.053, 0.3107 1.8944 0.0136, 0.3107 1.8944 0.053, 0.3536 1.9204 0.0136, 0.3536 1.9204 0.053, 0.3895 1.9327 0.0136, 0.3895 1.9327 0.053, 0.4468 1.9393 0.0136, 0.4468 1.9393 0.053, 0.3059 1.8333 0.053, 0.3059 1.8333 0.0136, 0.449 1.899 0.053, 0.449 1.899 0.0136, 0.4353 1.8985 0.0136, 0.4353 1.8985 0.053, 0.3918 1.8909 0.0136, 0.3918 1.8909 0.053, 0.3745 1.8848 0.0136, 0.3745 1.8848 0.053, 0.3375 1.8639 0.0136, 0.3375 1.8639 0.053, 0.6233 1.732 0.053, 0.6233 1.732 0.0136, 0.6224 1.7505 0.0136, 0.6224 1.7505 0.053, 0.614 1.7887 0.0136, 0.614 1.7887 0.053, 0.5964 1.8236 0.0136, 0.5964 1.8236 0.053, 0.572 1.8522 0.0136, 0.572 1.8522 0.053, 0.5357 1.8777 0.0136, 0.5357 1.8777 0.053, 0.4955 1.8932 0.0136, 0.4955 1.8932 0.053, 0.4465 1.5658 0.053, 0.4465 1.5658 0.0136, 0.4779 1.568 0.0136, 0.4779 1.568 0.053, 0.5179 1.5783 0.0136, 0.5179 1.5783 0.053, 0.556 1.5991 0.0136, 0.556 1.5991 0.053, 0.5844 1.6251 0.0136, 0.5844 1.6251 0.053, 0.6056 1.6559 0.0136, 0.6056 1.6559 0.053, 0.6181 1.6886 0.0136, 0.6181 1.6886 0.053, 0.3059 1.6314 0.053, 0.3059 1.6314 0.0136, 0.3277 1.6094 0.0136, 0.3277 1.6094 0.053, 0.3625 1.5856 0.0136, 0.3625 1.5856 0.053, 0.4004 1.5713 0.0136, 0.4004 1.5713 0.053, 0.275 1.608 0.053, 0.275 1.608 0.0136, 0.4463 1.5255 0.053, 0.4463 1.5255 0.0136, 0.4266 1.5262 0.0136, 0.4266 1.5262 0.053, 0.3966 1.5305 0.0136, 0.3953 1.5307 0.053, 0.3953 1.5307 0.0136, 0.3505 1.5459 0.0136, 0.3505 1.5459 0.053, 0.3098 1.5716 0.0136, 0.3098 1.5716 0.053, 0.4904 1.5305 0.0136, 0.5077 1.5325 0.053, 0.5077 1.5325 0.0136, 0.5549 1.5506 0.053, 0.5549 1.5506 0.0136, 0.5929 1.5779 0.053, 0.5929 1.5779 0.0136, 0.6087 1.5943 0.053, 0.6087 1.5943 0.0136, 0.6586 1.7347 0.053, 0.6586 1.7347 0.0136, 0.6531 1.6827 0.0136, 0.6531 1.6827 0.053, 0.6373 1.6375 0.0136, 0.6373 1.6375 0.053, 0.4782 1.9375 0.0136, 0.4782 1.9375 0.053, 0.5263 1.9261 0.0136, 0.5263 1.9261 0.053, 0.568 1.9049 0.0136, 0.568 1.9049 0.053, 0.609 1.8689 0.0136, 0.609 1.8689 0.053, 0.636 1.8302 0.0136, 0.636 1.8302 0.053, 0.6521 1.7885 0.0136, 0.6521 1.7885 0.053, 0.8908 1.5355 0.053, 0.8908 1.9292 0.053, 0.8908 1.5355 0.0136, 0.8908 1.9292 0.0136, 0.8555 1.9292 0.053, 0.8555 1.9292 0.0136, 0.8555 1.5759 0.053, 0.8555 1.5759 0.0136, 0.704 1.5759 0.053, 0.704 1.5759 0.0136, 0.704 1.5355 0.053, 0.704 1.5355 0.0136, 2.2638 2.3169 1.2865, 2.185 2.2382 1.3084, 2.2638 2.3169 1.6672, 2.185 2.2382 1.6672, 2.201 2.0589 0.9805, 2.185 2.0422 0.9838, 2.2638 2.1606 1.0275, 2.2375 2.1093 0.9934, 2.2283 2.0936 0.9853, 2.2159 2.0765 0.981, -2.185 2.2382 1.3084, -2.2638 2.3169 1.2865, -2.185 2.2382 1.6672, -2.2638 2.3169 1.6672, -2.185 2.0422 0.9838, -2.201 2.0589 0.9805, -2.2159 2.0765 0.981, -2.2638 2.1606 1.0275, -2.2375 2.1093 0.9934, -2.2283 2.0936 0.9853, -2.185 2.5532 0.2892, -2.2638 2.6319 0.2105, -2.185 2.5532 0.8205, -2.2638 2.6319 0.8205, -1.124 2.5532 0.2892, -0.1398 2.5532 0.2892, -0.9084 2.5532 0.2892, -1.0162 2.4453 0.397, 2.185 2.5532 0.2892, 2.2638 2.6319 0.2105, 1.0601 2.5532 0.2892, 0.9523 2.4453 0.397, 0.8445 2.5532 0.2892, 0.0758 2.5532 0.2892, -0.032 2.4453 0.397, 2.2638 2.6319 0.8205, 2.185 2.5532 0.8205, -1.124 0.9783 0.2892, -1.0162 0.9783 0.397, -0.9084 0.9783 0.2892, -0.1398 0.9783 0.2892, -0.032 0.9783 0.397, 0.0758 0.9783 0.2892, 0.8445 0.9783 0.2892, 0.9523 0.9783 0.397, 1.0601 0.9783 0.2892
            ]
        }
        coordIndex [
            0,1,2,-1,2,1,3,-1,1,4,3,-1,3,4,5,-1,4,6,5,-1,5,6,7,-1,6,8,7,-1,7,8,9,-1,8,10,9,-1,9,10,11,-1,10,12,11,-1,11,12,13,-1,12,14,13,-1,13,14,15,-1,14,0,15,-1,15,0,2,-1,16,4,1,-1,0,17,1,-1,1,17,18,-1,1,18,16,-1,14,12,10,-1,6,4,8,-1,8,4,16,-1,8,16,10,-1,10,16,17,-1,10,17,14,-1,14,17,0,-1,16,18,19,-1,19,18,20,-1,17,16,21,-1,21,16,19,-1,18,17,20,-1,20,17,21,-1,22,23,24,-1,24,23,25,-1,23,26,25,-1,25,26,27,-1,26,28,27,-1,27,28,29,-1,30,31,32,-1,30,32,33,-1,33,32,29,-1,33,29,28,-1,34,35,36,-1,34,36,37,-1,37,36,38,-1,37,38,39,-1,39,38,40,-1,39,40,41,-1,41,40,42,-1,41,42,43,-1,43,42,44,-1,43,44,45,-1,45,44,31,-1,45,31,30,-1,22,24,46,-1,22,46,47,-1,47,46,48,-1,47,48,49,-1,49,48,50,-1,49,50,51,-1,51,50,52,-1,51,52,53,-1,53,52,54,-1,53,54,55,-1,55,54,56,-1,55,56,57,-1,57,56,35,-1,57,35,34,-1,58,59,30,-1,30,59,60,-1,30,60,45,-1,45,60,61,-1,45,61,43,-1,43,61,62,-1,43,62,41,-1,41,62,63,-1,41,63,39,-1,39,63,64,-1,39,64,37,-1,37,64,65,-1,37,65,34,-1,34,65,66,-1,34,66,57,-1,57,66,67,-1,57,67,55,-1,55,67,68,-1,55,68,53,-1,53,68,69,-1,53,69,51,-1,51,69,70,-1,51,70,49,-1,49,70,71,-1,49,71,47,-1,47,71,72,-1,47,72,22,-1,22,72,73,-1,22,73,23,-1,23,73,74,-1,23,74,26,-1,26,74,75,-1,26,75,28,-1,28,75,76,-1,28,76,33,-1,33,76,58,-1,33,58,30,-1,75,74,77,-1,77,74,78,-1,76,75,79,-1,79,75,77,-1,76,79,80,-1,76,80,58,-1,58,80,81,-1,58,81,59,-1,59,81,82,-1,59,82,60,-1,60,82,83,-1,60,83,61,-1,61,83,84,-1,61,84,62,-1,62,84,85,-1,62,85,63,-1,63,85,86,-1,63,86,64,-1,64,86,87,-1,64,87,65,-1,65,87,88,-1,65,88,66,-1,66,88,89,-1,66,89,67,-1,67,89,90,-1,67,90,68,-1,68,90,91,-1,68,91,69,-1,69,91,92,-1,69,92,70,-1,70,92,93,-1,70,93,71,-1,71,93,94,-1,71,94,72,-1,72,94,95,-1,72,95,73,-1,74,73,78,-1,78,73,95,-1,96,97,98,-1,98,97,99,-1,97,100,99,-1,99,100,101,-1,100,102,101,-1,101,102,103,-1,102,104,103,-1,103,104,105,-1,104,106,105,-1,105,106,107,-1,106,108,107,-1,107,108,109,-1,108,110,109,-1,109,110,111,-1,110,112,111,-1,111,112,113,-1,112,114,113,-1,113,114,115,-1,114,116,115,-1,115,116,117,-1,116,118,117,-1,117,118,119,-1,118,96,119,-1,119,96,98,-1,96,118,116,-1,116,114,96,-1,96,114,112,-1,96,112,97,-1,102,100,104,-1,104,100,97,-1,104,97,106,-1,106,97,112,-1,106,112,108,-1,108,112,110,-1,120,121,122,-1,120,122,123,-1,123,122,124,-1,123,124,125,-1,125,124,126,-1,125,126,127,-1,127,126,128,-1,127,128,129,-1,129,128,130,-1,129,130,131,-1,120,132,121,-1,121,132,133,-1,134,135,136,-1,134,136,137,-1,137,136,138,-1,137,138,139,-1,139,138,140,-1,139,140,141,-1,141,140,142,-1,141,142,143,-1,143,142,133,-1,143,133,132,-1,144,145,146,-1,144,146,147,-1,147,146,148,-1,147,148,149,-1,149,148,150,-1,149,150,151,-1,151,150,152,-1,151,152,153,-1,153,152,154,-1,153,154,155,-1,155,154,156,-1,155,156,157,-1,157,156,135,-1,157,135,134,-1,158,159,160,-1,158,160,161,-1,161,160,162,-1,161,162,163,-1,163,162,164,-1,163,164,165,-1,165,164,166,-1,165,166,167,-1,167,166,168,-1,167,168,169,-1,169,168,170,-1,169,170,171,-1,171,170,145,-1,171,145,144,-1,172,173,174,-1,172,174,175,-1,175,174,176,-1,175,176,177,-1,177,176,178,-1,177,178,179,-1,179,178,159,-1,179,159,158,-1,172,180,173,-1,173,180,181,-1,182,183,184,-1,182,184,185,-1,185,184,186,-1,185,186,187,-1,186,188,187,-1,187,188,189,-1,187,189,190,-1,190,189,191,-1,190,191,192,-1,192,191,181,-1,192,181,180,-1,183,182,193,-1,193,182,194,-1,193,194,195,-1,195,194,196,-1,195,196,197,-1,197,196,198,-1,197,198,199,-1,199,198,200,-1,199,200,201,-1,202,203,204,-1,202,204,205,-1,205,204,206,-1,205,206,207,-1,207,206,201,-1,207,201,200,-1,131,130,208,-1,131,208,209,-1,209,208,210,-1,209,210,211,-1,211,210,212,-1,211,212,213,-1,213,212,214,-1,213,214,215,-1,215,214,216,-1,215,216,217,-1,217,216,218,-1,217,218,219,-1,219,218,203,-1,219,203,202,-1,132,120,123,-1,180,172,192,-1,192,172,175,-1,192,175,190,-1,190,175,177,-1,190,177,187,-1,187,177,179,-1,187,179,185,-1,185,179,158,-1,132,123,143,-1,143,123,125,-1,143,125,141,-1,141,125,127,-1,141,127,139,-1,139,127,129,-1,139,129,137,-1,137,129,131,-1,137,131,134,-1,134,131,209,-1,134,209,157,-1,157,209,211,-1,157,211,155,-1,155,211,213,-1,155,213,153,-1,153,213,215,-1,153,215,151,-1,151,215,217,-1,151,217,149,-1,149,217,219,-1,149,219,147,-1,147,219,202,-1,147,202,144,-1,144,202,171,-1,171,202,205,-1,171,205,169,-1,169,205,207,-1,169,207,167,-1,167,207,200,-1,167,200,165,-1,165,200,198,-1,165,198,163,-1,163,198,196,-1,163,196,161,-1,161,196,194,-1,161,194,158,-1,158,194,182,-1,158,182,185,-1,220,221,222,-1,222,221,223,-1,221,224,223,-1,223,224,225,-1,224,226,225,-1,225,226,227,-1,226,228,227,-1,227,228,229,-1,228,230,229,-1,229,230,231,-1,230,220,231,-1,231,220,222,-1,224,221,226,-1,226,221,220,-1,226,220,228,-1,228,220,230,-1,20,21,19,-1,77,78,79,-1,79,78,95,-1,79,95,80,-1,80,95,94,-1,80,94,81,-1,90,89,94,-1,94,89,88,-1,94,88,87,-1,93,92,94,-1,94,92,91,-1,94,91,90,-1,87,86,94,-1,94,86,85,-1,94,85,84,-1,84,83,94,-1,94,83,82,-1,94,82,81,-1,232,233,234,-1,234,233,235,-1,236,237,233,-1,232,238,233,-1,233,238,239,-1,239,240,233,-1,233,240,241,-1,233,241,236,-1,242,243,244,-1,244,243,245,-1,246,247,242,-1,242,247,248,-1,249,243,250,-1,250,243,242,-1,250,242,251,-1,251,242,248,-1,252,253,254,-1,254,253,255,-1,253,252,256,-1,257,253,258,-1,258,253,256,-1,258,256,259,-1,260,261,262,-1,262,261,253,-1,263,262,264,-1,264,262,253,-1,264,253,265,-1,265,253,257,-1,265,257,266,-1,261,260,267,-1,267,260,268,-1,269,270,256,-1,256,270,259,-1,270,271,259,-1,259,271,258,-1,272,273,257,-1,257,273,266,-1,273,274,266,-1,266,274,265,-1,275,276,264,-1,264,276,263,-1,276,277,263,-1,263,277,262,-1,
        ]
    }
}