#VRML V2.0 utf8
# 3D model generated by easyeda2kicad.py (https://github.com/uPesy/easyeda2kicad.py)

Shape{
    appearance Appearance {
        material  Material 	{
            diffuseColor 0.6666666666666666 0.6666666666666666 0.6666666666666666
            specularColor 0.4666666666666667 0.4666666666666667 0.4666666666666667
            ambientIntensity 0.6667
            transparency 0.0
            shininess 0.5
        }
    }
    geometry IndexedFaceSet {
        ccw TRUE
        solid FALSE
        coord DEF co Coordinate {
            point [
                1.3504 -0.126 -0.9969, 1.3504 -0.126 -1.2157, 1.6024 -0.126 -0.9969, 1.6024 -0.126 -1.2157, 1.6024 -0.126 -0.4204, 1.6024 -0.126 -0.1181, 1.3504 -0.126 -0.4204, 1.3504 -0.126 -0.1181, 1.6024 0.126 -0.1181, 1.6024 0.126 -0.5003, 1.3504 0.126 -0.1181, 1.3504 0.126 -0.5003, 1.6024 0.126 -1.2157, 1.3504 0.126 -1.2157, 1.6024 0.126 -0.917, 1.3504 0.126 -0.917, -1.3504 -0.126 -0.1181, -1.6024 -0.126 -0.1181, -1.3504 -0.126 -0.4204, -1.6024 -0.126 -0.4204, -1.3504 0.126 -0.917, -1.3504 0.126 -1.2157, -1.6024 0.126 -0.917, -1.6024 0.126 -1.2157
            ]
        }
        coordIndex [
            0,1,2,-1,2,1,3,-1,4,5,6,-1,6,5,7,-1,8,9,10,-1,10,9,11,-1,12,13,14,-1,14,13,15,-1,16,17,18,-1,18,17,19,-1,20,21,22,-1,22,21,23,-1,
        ]
    }
}
Shape{
    appearance Appearance {
        material  Material 	{
            diffuseColor 1.0 1.0 1.0
            specularColor 0.30196078431372547 0.30196078431372547 0.30196078431372547
            ambientIntensity 1.0
            transparency 0.0
            shininess 0.5
        }
    }
    geometry IndexedFaceSet {
        ccw TRUE
        solid FALSE
        coord DEF co Coordinate {
            point [
                -2.2638 0.4331 0.6693, -2.2638 0.4331 2.0866, -2.2638 -0.0787 0.6693, -2.2638 -0.0787 2.0866, 2.2638 -0.0787 2.0866, 2.2638 0.4331 2.0866, 2.2638 -0.0787 0.6693, 2.2638 0.4331 0.6693, -2.0276 -0.8661 1.8898, -2.0276 -0.6693 1.8898, -2.1457 -0.8661 1.8898, -2.1457 -0.6693 1.8898, -2.0276 -0.6693 0.6693, -2.3661 -0.6693 1.9488, -2.2638 -0.6693 1.8898, -2.3779 -0.6693 1.9203, -2.3819 -0.6693 1.8898, -2.2047 -0.6693 1.9921, -2.1803 -0.6693 1.9733, -2.1615 -0.6693 1.9488, -2.2638 -0.6693 0.6693, -2.1497 -0.6693 1.9203, -2.3473 -0.6693 1.9733, -2.3228 -0.6693 1.9921, -2.2943 -0.6693 2.0039, -2.2638 -0.6693 2.0079, -2.2332 -0.6693 2.0039, -2.4606 -0.8661 1.8898, -2.3819 -0.8661 1.8898, -2.4606 -0.6693 1.8898, -2.4606 -0.8661 -0.1181, 2.4606 -0.8661 1.8898, 2.0276 -0.8661 1.8898, 2.4606 -0.8661 -0.1181, 2.0276 -0.8661 0.4724, -2.0276 -0.8661 0.4724, -2.1497 -0.8661 1.9203, -2.1615 -0.8661 1.9488, -2.1803 -0.8661 1.9733, -2.2047 -0.8661 1.9921, -2.2332 -0.8661 2.0039, -2.3473 -0.8661 1.9733, -2.3661 -0.8661 1.9488, -2.3228 -0.8661 1.9921, -2.3779 -0.8661 1.9203, -2.2638 -0.8661 2.0079, -2.2943 -0.8661 2.0039, 2.0276 -0.6693 1.8898, 2.2638 -0.6693 1.8898, 2.0276 -0.6693 0.6693, 2.2638 -0.6693 0.6693, 2.4606 0.6299 2.2441, 2.4606 -0.0787 2.2441, 2.4606 0.6299 -0.1181, 2.4606 -0.0787 0.6693, 2.4606 -0.4945 1.3432, 2.4606 -0.2631 1.4534, 2.4606 -0.2631 1.5356, 2.4606 -0.2631 0.6693, 2.4606 -0.4945 1.1872, 2.4606 -0.6693 1.8898, -2.4606 0.6299 2.2441, -2.4606 0.6299 -0.1181, -2.4606 -0.2631 1.5356, -2.4606 -0.2631 1.4534, -2.4606 -0.4945 1.3432, -2.4606 -0.4945 1.1872, -2.4606 -0.2631 0.6693, -2.4606 -0.0787 0.6693, -2.4606 -0.0787 2.2441, 2.4213 -0.0787 2.2441, 2.4213 0.5906 2.2441, -2.4213 0.5906 2.2441, -2.4213 -0.0787 2.2441, -1.3504 0.126 -0.1181, -1.6024 0.126 -0.1181, 1.3504 -0.126 -0.1181, 1.6024 -0.126 -0.1181, -1.6024 -0.126 -0.1181, -1.3504 -0.126 -0.1181, -0.3661 -0.126 -0.1181, -0.6181 -0.126 -0.1181, -0.6181 0.126 -0.1181, 0.6181 -0.126 -0.1181, 0.6181 0.126 -0.1181, 1.3504 0.126 -0.1181, 1.6024 0.126 -0.1181, 0.3661 0.126 -0.1181, 0.3661 -0.126 -0.1181, -0.3661 0.126 -0.1181, -2.2638 -0.4945 1.3432, -2.2638 -0.2631 1.4534, -2.2638 -0.2631 1.5356, -2.2638 -0.2631 0.6693, -2.2638 -0.4945 1.1872, 2.2638 -0.2631 1.5356, 2.2638 -0.2631 1.4534, 2.2638 -0.4945 1.3432, 2.2638 -0.4945 1.1872, 2.2638 -0.2631 0.6693, 1.6024 0.126 0.6693, 1.6024 -0.126 0.6693, 1.3504 -0.126 0.6693, 0.3661 -0.126 0.6693, 0.6181 -0.126 0.6693, 0.6181 0.126 0.6693, -1.6024 -0.126 0.6693, -1.3504 -0.126 0.6693, -1.6024 0.126 0.6693, -1.3504 0.126 0.6693, -0.3661 0.126 0.6693, -0.6181 0.126 0.6693, -0.6181 -0.126 0.6693, 1.3504 0.126 0.6693, -0.3661 -0.126 0.6693, 0.3661 0.126 0.6693, -2.0276 -0.6693 0.4724, 2.0276 -0.6693 0.4724
            ]
        }
        coordIndex [
            0,1,2,-1,2,1,3,-1,4,5,6,-1,6,5,7,-1,8,9,10,-1,10,9,11,-1,11,9,12,-1,13,14,15,-1,15,14,16,-1,17,18,14,-1,14,18,19,-1,12,20,11,-1,11,20,14,-1,11,14,21,-1,21,14,19,-1,13,22,14,-1,14,22,23,-1,14,23,24,-1,24,25,14,-1,14,25,26,-1,14,26,17,-1,27,28,29,-1,29,28,16,-1,28,27,30,-1,31,32,33,-1,33,32,34,-1,33,34,30,-1,30,34,35,-1,35,8,30,-1,30,8,10,-1,30,10,28,-1,28,10,36,-1,28,36,37,-1,37,38,28,-1,28,38,39,-1,28,39,40,-1,41,42,43,-1,43,42,44,-1,43,44,28,-1,40,45,28,-1,28,45,46,-1,28,46,43,-1,47,48,49,-1,49,48,50,-1,51,52,53,-1,53,52,54,-1,53,54,33,-1,55,56,57,-1,54,58,33,-1,33,58,59,-1,33,59,31,-1,31,59,55,-1,31,55,60,-1,60,55,57,-1,61,51,62,-1,62,51,53,-1,63,64,29,-1,29,64,65,-1,29,65,27,-1,27,65,66,-1,27,66,30,-1,30,66,67,-1,30,67,62,-1,62,67,68,-1,62,68,61,-1,61,68,69,-1,70,52,71,-1,71,52,51,-1,71,51,72,-1,72,51,61,-1,72,61,73,-1,73,61,69,-1,74,75,62,-1,30,76,33,-1,33,76,77,-1,33,77,53,-1,62,75,30,-1,30,75,78,-1,30,78,79,-1,80,30,81,-1,81,30,79,-1,81,79,82,-1,83,84,85,-1,77,86,53,-1,53,86,85,-1,53,85,62,-1,62,85,84,-1,62,84,87,-1,85,76,83,-1,83,76,30,-1,83,30,88,-1,88,30,80,-1,88,80,87,-1,87,80,89,-1,87,89,62,-1,62,89,82,-1,62,82,74,-1,74,82,79,-1,90,91,92,-1,93,94,20,-1,20,94,90,-1,20,90,14,-1,14,90,92,-1,1,0,5,-1,5,0,7,-1,95,96,48,-1,48,96,97,-1,48,97,50,-1,50,97,98,-1,50,98,99,-1,99,100,50,-1,50,100,101,-1,50,101,49,-1,49,101,102,-1,103,49,104,-1,104,49,102,-1,104,102,105,-1,106,12,107,-1,107,12,49,-1,2,106,0,-1,0,106,108,-1,0,108,109,-1,68,67,2,-1,2,67,93,-1,2,93,106,-1,106,93,20,-1,106,20,12,-1,110,0,111,-1,111,0,109,-1,111,109,112,-1,58,54,99,-1,99,54,6,-1,99,6,100,-1,100,6,7,-1,100,7,113,-1,113,7,0,-1,109,107,112,-1,112,107,49,-1,112,49,114,-1,114,49,103,-1,114,103,110,-1,110,103,115,-1,110,115,0,-1,0,115,105,-1,0,105,113,-1,113,105,102,-1,2,3,68,-1,68,3,73,-1,68,73,69,-1,4,6,70,-1,70,6,54,-1,70,54,52,-1,47,32,48,-1,48,32,31,-1,48,31,60,-1,71,5,70,-1,70,5,4,-1,72,1,71,-1,71,1,5,-1,73,3,72,-1,72,3,1,-1,9,8,12,-1,12,8,35,-1,12,35,116,-1,116,117,12,-1,12,117,49,-1,32,47,34,-1,34,47,49,-1,34,49,117,-1,34,117,35,-1,35,117,116,-1,16,28,44,-1,16,44,15,-1,15,44,42,-1,15,42,13,-1,13,42,41,-1,13,41,22,-1,22,41,43,-1,22,43,23,-1,23,43,46,-1,23,46,24,-1,24,46,45,-1,24,45,25,-1,25,45,40,-1,25,40,26,-1,26,40,39,-1,26,39,17,-1,17,39,38,-1,17,38,18,-1,18,38,37,-1,18,37,19,-1,19,37,36,-1,19,36,21,-1,21,36,10,-1,21,10,11,-1,57,95,60,-1,60,95,48,-1,56,96,57,-1,57,96,95,-1,55,97,56,-1,56,97,96,-1,59,98,55,-1,55,98,97,-1,58,99,59,-1,59,99,98,-1,65,90,66,-1,66,90,94,-1,64,91,65,-1,65,91,90,-1,63,92,64,-1,64,92,91,-1,66,94,67,-1,67,94,93,-1,14,92,16,-1,16,92,63,-1,16,63,29,-1,
        ]
    }
}
Shape{
    appearance Appearance {
        material  Material 	{
            diffuseColor 0.6666666666666666 0.6666666666666666 0.6666666666666666
            specularColor 0.4666666666666667 0.4666666666666667 0.4666666666666667
            ambientIntensity 0.6667
            transparency 0.0
            shininess 0.5
        }
    }
    geometry IndexedFaceSet {
        ccw TRUE
        solid FALSE
        coord DEF co Coordinate {
            point [
                -1.4094 -0.0669 1.9685, -1.4094 0.0669 1.9685, -1.5433 -0.0669 1.9685, -1.5433 0.0669 1.9685, -1.3504 -0.126 1.8063, -1.3504 -0.126 0.6693, -1.3504 0.126 1.8063, -1.3504 0.126 0.6693, -1.6024 -0.126 1.8063, -1.6024 -0.126 0.6693, -1.6024 0.126 1.8063, -1.6024 0.126 0.6693, -1.3504 0.126 -0.5003, -1.6024 0.126 -0.5003, -1.3504 0.126 -0.1181, -1.6024 0.126 -0.1181, -1.6024 -0.126 -0.4204, -1.6024 -0.126 -0.1181, -1.6024 0.126 -1.2157, -1.6024 -0.126 -1.2157, -1.6024 0.126 -0.917, -1.6024 -0.126 -0.9969, -1.6024 0.0472 -0.7087, -1.6024 0.0563 -0.7838, -1.6024 -0.1759 -0.887, -1.6024 0.0831 -0.8546, -1.6024 0.0831 -0.5627, -1.6024 -0.1759 -0.5303, -1.6024 0.0563 -0.6335, -1.6024 -0.2015 -0.6483, -1.6024 -0.2015 -0.769, -1.3504 -0.126 -1.2157, -1.3504 -0.126 -0.9969, -1.3504 0.126 -1.2157, -1.3504 -0.126 -0.1181, -1.3504 -0.126 -0.4204, -1.3504 0.126 -0.917, -1.3504 0.0831 -0.8546, -1.3504 -0.1759 -0.887, -1.3504 0.0563 -0.7838, -1.3504 -0.2015 -0.769, -1.3504 0.0472 -0.7087, -1.3504 -0.2015 -0.6483, -1.3504 0.0563 -0.6335, -1.3504 -0.1759 -0.5303, -1.3504 0.0831 -0.5627, -1.4094 0.0669 -1.378, -1.4094 -0.0669 -1.378, -1.5433 0.0669 -1.378, -1.5433 -0.0669 -1.378, -0.4252 -0.0669 1.9685, -0.4252 0.0669 1.9685, -0.5591 -0.0669 1.9685, -0.5591 0.0669 1.9685, -0.3661 -0.126 1.8063, -0.3661 -0.126 0.6693, -0.3661 0.126 1.8063, -0.3661 0.126 0.6693, -0.6181 -0.126 1.8063, -0.6181 -0.126 0.6693, -0.6181 0.126 1.8063, -0.6181 0.126 0.6693, -0.6181 0.126 -1.2157, -0.6181 0.126 -0.1181, -0.3661 0.126 -1.2157, -0.3661 0.126 -0.1181, -0.6181 -0.126 -1.2157, -0.6181 -0.126 -0.1181, -0.3661 -0.126 -1.2157, -0.3661 -0.126 -0.1181, -0.4252 0.0669 -1.378, -0.4252 -0.0669 -1.378, -0.5591 0.0669 -1.378, -0.5591 -0.0669 -1.378, 0.5591 -0.0669 1.9685, 0.5591 0.0669 1.9685, 0.4252 -0.0669 1.9685, 0.4252 0.0669 1.9685, 0.6181 -0.126 1.8063, 0.6181 -0.126 0.6693, 0.6181 0.126 1.8063, 0.6181 0.126 0.6693, 0.3661 -0.126 1.8063, 0.3661 -0.126 0.6693, 0.3661 0.126 1.8063, 0.3661 0.126 0.6693, 0.3661 0.126 -1.2157, 0.3661 0.126 -0.1181, 0.6181 0.126 -1.2157, 0.6181 0.126 -0.1181, 0.3661 -0.126 -1.2157, 0.3661 -0.126 -0.1181, 0.6181 -0.126 -1.2157, 0.6181 -0.126 -0.1181, 0.5591 0.0669 -1.378, 0.5591 -0.0669 -1.378, 0.4252 0.0669 -1.378, 0.4252 -0.0669 -1.378, 1.5433 -0.0669 1.9685, 1.5433 0.0669 1.9685, 1.4094 -0.0669 1.9685, 1.4094 0.0669 1.9685, 1.6024 -0.126 1.8063, 1.6024 -0.126 0.6693, 1.6024 0.126 1.8063, 1.6024 0.126 0.6693, 1.3504 -0.126 1.8063, 1.3504 -0.126 0.6693, 1.3504 0.126 1.8063, 1.3504 0.126 0.6693, 1.3504 -0.126 -0.4204, 1.3504 -0.126 -0.1181, 1.3504 0.126 -0.1181, 1.3504 0.126 -1.2157, 1.3504 -0.126 -1.2157, 1.3504 0.126 -0.917, 1.3504 -0.126 -0.9969, 1.3504 0.126 -0.5003, 1.3504 0.0831 -0.5627, 1.3504 -0.1759 -0.5303, 1.3504 0.0563 -0.6335, 1.3504 -0.2015 -0.6483, 1.3504 0.0472 -0.7087, 1.3504 -0.2015 -0.769, 1.3504 0.0563 -0.7838, 1.3504 -0.1759 -0.887, 1.3504 0.0831 -0.8546, 1.6024 -0.126 -0.9969, 1.6024 -0.126 -1.2157, 1.6024 0.126 -1.2157, 1.6024 0.126 -0.1181, 1.6024 -0.126 -0.1181, 1.6024 0.126 -0.5003, 1.6024 -0.126 -0.4204, 1.6024 0.0472 -0.7087, 1.6024 0.0563 -0.6335, 1.6024 -0.1759 -0.5303, 1.6024 0.0831 -0.5627, 1.6024 0.126 -0.917, 1.6024 0.0831 -0.8546, 1.6024 -0.1759 -0.887, 1.6024 0.0563 -0.7838, 1.6024 -0.2015 -0.769, 1.6024 -0.2015 -0.6483, 1.5433 0.0669 -1.378, 1.5433 -0.0669 -1.378, 1.4094 0.0669 -1.378, 1.4094 -0.0669 -1.378
            ]
        }
        coordIndex [
            0,1,2,-1,2,1,3,-1,4,5,6,-1,6,5,7,-1,8,9,4,-1,4,9,5,-1,10,11,8,-1,8,11,9,-1,6,7,10,-1,10,7,11,-1,12,13,14,-1,14,13,15,-1,16,17,15,-1,18,19,20,-1,20,19,21,-1,22,23,24,-1,24,23,21,-1,21,23,25,-1,21,25,20,-1,15,13,16,-1,16,13,26,-1,16,26,27,-1,27,26,28,-1,27,28,29,-1,29,28,22,-1,29,22,30,-1,30,22,24,-1,19,31,21,-1,21,31,32,-1,32,31,33,-1,14,34,12,-1,12,34,35,-1,33,36,32,-1,32,36,37,-1,32,37,38,-1,38,37,39,-1,38,39,40,-1,40,39,41,-1,40,41,42,-1,42,41,43,-1,42,43,44,-1,44,43,35,-1,35,43,45,-1,35,45,12,-1,46,47,48,-1,48,47,49,-1,47,31,49,-1,49,31,19,-1,46,33,47,-1,47,33,31,-1,18,48,19,-1,19,48,49,-1,48,18,46,-1,46,18,33,-1,10,3,6,-1,6,3,1,-1,8,2,10,-1,10,2,3,-1,0,4,1,-1,1,4,6,-1,4,0,8,-1,8,0,2,-1,50,51,52,-1,52,51,53,-1,54,55,56,-1,56,55,57,-1,58,59,54,-1,54,59,55,-1,60,61,58,-1,58,61,59,-1,56,57,60,-1,60,57,61,-1,62,63,64,-1,64,63,65,-1,66,67,62,-1,62,67,63,-1,68,69,66,-1,66,69,67,-1,64,65,68,-1,68,65,69,-1,70,71,72,-1,72,71,73,-1,74,75,76,-1,76,75,77,-1,78,79,80,-1,80,79,81,-1,82,83,78,-1,78,83,79,-1,84,85,82,-1,82,85,83,-1,80,81,84,-1,84,81,85,-1,86,87,88,-1,88,87,89,-1,90,91,86,-1,86,91,87,-1,92,93,90,-1,90,93,91,-1,88,89,92,-1,92,89,93,-1,94,95,96,-1,96,95,97,-1,98,99,100,-1,100,99,101,-1,102,103,104,-1,104,103,105,-1,106,107,102,-1,102,107,103,-1,108,109,106,-1,106,109,107,-1,104,105,108,-1,108,105,109,-1,110,111,112,-1,113,114,115,-1,115,114,116,-1,112,117,110,-1,110,117,118,-1,110,118,119,-1,119,118,120,-1,119,120,121,-1,121,120,122,-1,121,122,123,-1,123,122,124,-1,123,124,125,-1,125,124,116,-1,116,124,126,-1,116,126,115,-1,127,128,129,-1,130,131,132,-1,132,131,133,-1,134,135,136,-1,136,135,133,-1,133,135,137,-1,133,137,132,-1,129,138,127,-1,127,138,139,-1,127,139,140,-1,140,139,141,-1,140,141,142,-1,142,141,134,-1,142,134,143,-1,143,134,136,-1,144,145,146,-1,146,145,147,-1,71,68,73,-1,73,68,66,-1,70,64,71,-1,71,64,68,-1,62,72,66,-1,66,72,73,-1,72,62,70,-1,70,62,64,-1,60,53,56,-1,56,53,51,-1,58,52,60,-1,60,52,53,-1,50,54,51,-1,51,54,56,-1,54,50,58,-1,58,50,52,-1,95,92,97,-1,97,92,90,-1,94,88,95,-1,95,88,92,-1,86,96,90,-1,90,96,97,-1,96,86,94,-1,94,86,88,-1,84,77,80,-1,80,77,75,-1,82,76,84,-1,84,76,77,-1,74,78,75,-1,75,78,80,-1,78,74,82,-1,82,74,76,-1,145,128,147,-1,147,128,114,-1,144,129,145,-1,145,129,128,-1,113,146,114,-1,114,146,147,-1,146,113,144,-1,144,113,129,-1,108,101,104,-1,104,101,99,-1,106,100,108,-1,108,100,101,-1,98,102,99,-1,99,102,104,-1,102,98,106,-1,106,98,100,-1,36,20,37,-1,37,20,25,-1,37,25,39,-1,39,25,23,-1,39,23,41,-1,41,23,22,-1,41,22,43,-1,43,22,28,-1,43,28,45,-1,45,28,26,-1,45,26,12,-1,12,26,13,-1,35,16,27,-1,35,27,44,-1,44,27,29,-1,44,29,42,-1,42,29,30,-1,42,30,40,-1,40,30,24,-1,40,24,38,-1,38,24,21,-1,38,21,32,-1,117,132,118,-1,118,132,137,-1,118,137,120,-1,120,137,135,-1,120,135,122,-1,122,135,134,-1,122,134,124,-1,124,134,141,-1,124,141,126,-1,126,141,139,-1,126,139,115,-1,115,139,138,-1,116,127,140,-1,116,140,125,-1,125,140,142,-1,125,142,123,-1,123,142,143,-1,123,143,121,-1,121,143,136,-1,121,136,119,-1,119,136,133,-1,119,133,110,-1,
        ]
    }
}