#VRML V2.0 utf8
# 3D model generated by easyeda2kicad.py (https://github.com/uPesy/easyeda2kicad.py)

Shape{
    appearance Appearance {
        material  Material 	{
            diffuseColor 0.6666666666666666 0.6666666666666666 0.6666666666666666
            specularColor 0.4666666666666667 0.4666666666666667 0.4666666666666667
            ambientIntensity 0.6667
            transparency 0.0
            shininess 0.5
        }
    }
    geometry IndexedFaceSet {
        ccw TRUE
        solid FALSE
        coord DEF co Coordinate {
            point [
                0.8583 -0.126 -0.8788, 0.8583 -0.126 -1.0976, 1.1102 -0.126 -0.8788, 1.1102 -0.126 -1.0976, 1.1102 -0.126 -0.3023, 1.1102 -0.126 0.0, 0.8583 -0.126 -0.3023, 0.8583 -0.126 0.0, 1.1102 0.126 0.0, 1.1102 0.126 -0.3822, 0.8583 0.126 0.0, 0.8583 0.126 -0.3822, 1.1102 0.126 -1.0976, 0.8583 0.126 -1.0976, 1.1102 0.126 -0.7989, 0.8583 0.126 -0.7989, -0.8583 -0.126 0.0, -1.1102 -0.126 0.0, -0.8583 -0.126 -0.3023, -1.1102 -0.126 -0.3023, -0.8583 0.126 -0.7989, -0.8583 0.126 -1.0976, -1.1102 0.126 -0.7989, -1.1102 0.126 -1.0976
            ]
        }
        coordIndex [
            0,1,2,-1,2,1,3,-1,4,5,6,-1,6,5,7,-1,8,9,10,-1,10,9,11,-1,12,13,14,-1,14,13,15,-1,16,17,18,-1,18,17,19,-1,20,21,22,-1,22,21,23,-1,
        ]
    }
}
Shape{
    appearance Appearance {
        material  Material 	{
            diffuseColor 1.0 1.0 1.0
            specularColor 0.30196078431372547 0.30196078431372547 0.30196078431372547
            ambientIntensity 1.0
            transparency 0.0
            shininess 0.5
        }
    }
    geometry IndexedFaceSet {
        ccw TRUE
        solid FALSE
        coord DEF co Coordinate {
            point [
                -1.7717 0.4331 0.7874, -1.7717 0.4331 2.2047, -1.7717 -0.0787 0.7874, -1.7717 -0.0787 2.2047, 1.7717 -0.0787 2.2047, 1.7717 0.4331 2.2047, 1.7717 -0.0787 0.7874, 1.7717 0.4331 0.7874, -1.5354 -0.8661 2.0079, -1.5354 -0.6693 2.0079, -1.6535 -0.8661 2.0079, -1.6535 -0.6693 2.0079, -1.5354 -0.6693 0.7874, -1.8739 -0.6693 2.0669, -1.7717 -0.6693 2.0079, -1.8857 -0.6693 2.0384, -1.8898 -0.6693 2.0079, -1.7126 -0.6693 2.1102, -1.6881 -0.6693 2.0914, -1.6694 -0.6693 2.0669, -1.7717 -0.6693 0.7874, -1.6576 -0.6693 2.0384, -1.8552 -0.6693 2.0914, -1.8307 -0.6693 2.1102, -1.8022 -0.6693 2.122, -1.7717 -0.6693 2.126, -1.7411 -0.6693 2.122, -1.9685 -0.8661 2.0079, -1.8898 -0.8661 2.0079, -1.9685 -0.6693 2.0079, -1.9685 -0.8661 0.0, 1.9685 -0.8661 2.0079, 1.5354 -0.8661 2.0079, 1.9685 -0.8661 0.0, 1.5354 -0.8661 0.5906, -1.5354 -0.8661 0.5906, -1.6576 -0.8661 2.0384, -1.6694 -0.8661 2.0669, -1.6881 -0.8661 2.0914, -1.7126 -0.8661 2.1102, -1.7411 -0.8661 2.122, -1.8552 -0.8661 2.0914, -1.8739 -0.8661 2.0669, -1.8307 -0.8661 2.1102, -1.8857 -0.8661 2.0384, -1.7717 -0.8661 2.126, -1.8022 -0.8661 2.122, 1.5354 -0.6693 2.0079, 1.7717 -0.6693 2.0079, 1.5354 -0.6693 0.7874, 1.7717 -0.6693 0.7874, 1.9685 0.6299 2.3622, 1.9685 -0.0787 2.3622, 1.9685 0.6299 0.0, 1.9685 -0.0787 0.7874, 1.9685 -0.4945 1.4613, 1.9685 -0.2631 1.5715, 1.9685 -0.2631 1.6537, 1.9685 -0.2631 0.7874, 1.9685 -0.4945 1.3054, 1.9685 -0.6693 2.0079, -1.9685 0.6299 2.3622, -1.9685 0.6299 0.0, -1.9685 -0.2631 1.6537, -1.9685 -0.2631 1.5715, -1.9685 -0.4945 1.4613, -1.9685 -0.4945 1.3054, -1.9685 -0.2631 0.7874, -1.9685 -0.0787 0.7874, -1.9685 -0.0787 2.3622, 1.9291 -0.0787 2.3622, 1.9291 0.5906 2.3622, -1.9291 0.5906 2.3622, -1.9291 -0.0787 2.3622, 0.8583 0.126 0.0, -0.8583 0.126 0.0, -1.1102 0.126 0.0, 0.8583 -0.126 0.0, 1.1102 -0.126 0.0, -1.1102 -0.126 0.0, -0.8583 -0.126 0.0, 1.1102 0.126 0.0, 0.126 -0.126 0.0, -0.126 -0.126 0.0, -0.126 0.126 0.0, 0.126 0.126 0.0, -1.7717 -0.4945 1.4613, -1.7717 -0.2631 1.5715, -1.7717 -0.2631 1.6537, -1.7717 -0.2631 0.7874, -1.7717 -0.4945 1.3054, 1.7717 -0.2631 1.6537, 1.7717 -0.2631 1.5715, 1.7717 -0.4945 1.4613, 1.7717 -0.4945 1.3054, 1.7717 -0.2631 0.7874, 1.1102 0.126 0.7874, 1.1102 -0.126 0.7874, 0.8583 -0.126 0.7874, -1.1102 -0.126 0.7874, -0.8583 -0.126 0.7874, -0.8583 0.126 0.7874, -0.126 -0.126 0.7874, 0.126 -0.126 0.7874, 0.126 0.126 0.7874, 0.8583 0.126 0.7874, -1.1102 0.126 0.7874, -0.126 0.126 0.7874, -1.5354 -0.6693 0.5906, 1.5354 -0.6693 0.5906
            ]
        }
        coordIndex [
            0,1,2,-1,2,1,3,-1,4,5,6,-1,6,5,7,-1,8,9,10,-1,10,9,11,-1,11,9,12,-1,13,14,15,-1,15,14,16,-1,17,18,14,-1,14,18,19,-1,12,20,11,-1,11,20,14,-1,11,14,21,-1,21,14,19,-1,13,22,14,-1,14,22,23,-1,14,23,24,-1,24,25,14,-1,14,25,26,-1,14,26,17,-1,27,28,29,-1,29,28,16,-1,28,27,30,-1,31,32,33,-1,33,32,34,-1,33,34,30,-1,30,34,35,-1,35,8,30,-1,30,8,10,-1,30,10,28,-1,28,10,36,-1,28,36,37,-1,37,38,28,-1,28,38,39,-1,28,39,40,-1,41,42,43,-1,43,42,44,-1,43,44,28,-1,40,45,28,-1,28,45,46,-1,28,46,43,-1,47,48,49,-1,49,48,50,-1,51,52,53,-1,53,52,54,-1,53,54,33,-1,55,56,57,-1,54,58,33,-1,33,58,59,-1,33,59,31,-1,31,59,55,-1,31,55,60,-1,60,55,57,-1,61,51,62,-1,62,51,53,-1,63,64,29,-1,29,64,65,-1,29,65,27,-1,27,65,66,-1,27,66,30,-1,30,66,67,-1,30,67,62,-1,62,67,68,-1,62,68,61,-1,61,68,69,-1,70,52,71,-1,71,52,51,-1,71,51,72,-1,72,51,61,-1,72,61,73,-1,73,61,69,-1,74,62,53,-1,75,76,62,-1,77,78,33,-1,62,76,30,-1,30,76,79,-1,30,79,80,-1,33,78,53,-1,53,78,81,-1,53,81,74,-1,82,30,83,-1,83,30,80,-1,83,80,84,-1,33,30,77,-1,77,30,82,-1,77,82,74,-1,74,82,85,-1,74,85,62,-1,62,85,84,-1,62,84,75,-1,75,84,80,-1,86,87,88,-1,89,90,20,-1,20,90,86,-1,20,86,14,-1,14,86,88,-1,1,0,5,-1,5,0,7,-1,91,92,48,-1,48,92,93,-1,48,93,50,-1,50,93,94,-1,50,94,95,-1,95,96,50,-1,50,96,97,-1,50,97,49,-1,49,97,98,-1,99,12,100,-1,100,12,49,-1,0,2,99,-1,101,100,102,-1,102,100,49,-1,102,49,103,-1,103,49,98,-1,103,98,104,-1,104,98,105,-1,99,106,0,-1,0,106,101,-1,0,101,107,-1,107,101,102,-1,68,67,2,-1,2,67,89,-1,2,89,99,-1,99,89,20,-1,99,20,12,-1,58,54,95,-1,95,54,6,-1,95,6,96,-1,96,6,7,-1,96,7,105,-1,105,7,0,-1,105,0,104,-1,104,0,107,-1,2,3,68,-1,68,3,73,-1,68,73,69,-1,4,6,70,-1,70,6,54,-1,70,54,52,-1,47,32,48,-1,48,32,31,-1,48,31,60,-1,71,5,70,-1,70,5,4,-1,72,1,71,-1,71,1,5,-1,73,3,72,-1,72,3,1,-1,9,8,12,-1,12,8,35,-1,12,35,108,-1,108,109,12,-1,12,109,49,-1,32,47,34,-1,34,47,49,-1,34,49,109,-1,34,109,35,-1,35,109,108,-1,16,28,44,-1,16,44,15,-1,15,44,42,-1,15,42,13,-1,13,42,41,-1,13,41,22,-1,22,41,43,-1,22,43,23,-1,23,43,46,-1,23,46,24,-1,24,46,45,-1,24,45,25,-1,25,45,40,-1,25,40,26,-1,26,40,39,-1,26,39,17,-1,17,39,38,-1,17,38,18,-1,18,38,37,-1,18,37,19,-1,19,37,36,-1,19,36,21,-1,21,36,10,-1,21,10,11,-1,57,91,60,-1,60,91,48,-1,56,92,57,-1,57,92,91,-1,55,93,56,-1,56,93,92,-1,59,94,55,-1,55,94,93,-1,58,95,59,-1,59,95,94,-1,65,86,66,-1,66,86,90,-1,64,87,65,-1,65,87,86,-1,63,88,64,-1,64,88,87,-1,66,90,67,-1,67,90,89,-1,14,88,16,-1,16,88,63,-1,16,63,29,-1,
        ]
    }
}
Shape{
    appearance Appearance {
        material  Material 	{
            diffuseColor 0.6666666666666666 0.6666666666666666 0.6666666666666666
            specularColor 0.4666666666666667 0.4666666666666667 0.4666666666666667
            ambientIntensity 0.6667
            transparency 0.0
            shininess 0.5
        }
    }
    geometry IndexedFaceSet {
        ccw TRUE
        solid FALSE
        coord DEF co Coordinate {
            point [
                -0.9173 -0.0669 2.0866, -0.9173 0.0669 2.0866, -1.0512 -0.0669 2.0866, -1.0512 0.0669 2.0866, -0.8583 -0.126 1.9244, -0.8583 -0.126 0.7874, -0.8583 0.126 1.9244, -0.8583 0.126 0.7874, -1.1102 -0.126 1.9244, -1.1102 -0.126 0.7874, -1.1102 0.126 1.9244, -1.1102 0.126 0.7874, -0.8583 0.126 -0.3822, -1.1102 0.126 -0.3822, -0.8583 0.126 0.0, -1.1102 0.126 0.0, -1.1102 -0.126 -0.3023, -1.1102 -0.126 0.0, -1.1102 0.126 -1.0976, -1.1102 -0.126 -1.0976, -1.1102 0.126 -0.7989, -1.1102 -0.126 -0.8788, -1.1102 0.0472 -0.5905, -1.1102 0.0563 -0.6657, -1.1102 -0.1759 -0.7689, -1.1102 0.0831 -0.7365, -1.1102 0.0831 -0.4446, -1.1102 -0.1759 -0.4122, -1.1102 0.0563 -0.5154, -1.1102 -0.2015 -0.5302, -1.1102 -0.2015 -0.6509, -0.8583 -0.126 -1.0976, -0.8583 -0.126 -0.8788, -0.8583 0.126 -1.0976, -0.8583 -0.126 0.0, -0.8583 -0.126 -0.3023, -0.8583 0.126 -0.7989, -0.8583 0.0831 -0.7365, -0.8583 -0.1759 -0.7689, -0.8583 0.0563 -0.6657, -0.8583 -0.2015 -0.6509, -0.8583 0.0472 -0.5905, -0.8583 -0.2015 -0.5302, -0.8583 0.0563 -0.5154, -0.8583 -0.1759 -0.4122, -0.8583 0.0831 -0.4446, -0.9173 0.0669 -1.2598, -0.9173 -0.0669 -1.2598, -1.0512 0.0669 -1.2598, -1.0512 -0.0669 -1.2598, 0.0669 -0.0669 2.0866, 0.0669 0.0669 2.0866, -0.0669 -0.0669 2.0866, -0.0669 0.0669 2.0866, 0.126 -0.126 1.9244, 0.126 -0.126 0.7874, 0.126 0.126 1.9244, 0.126 0.126 0.7874, -0.126 -0.126 1.9244, -0.126 -0.126 0.7874, -0.126 0.126 1.9244, -0.126 0.126 0.7874, -0.126 0.126 -1.0976, -0.126 0.126 0.0, 0.126 0.126 -1.0976, 0.126 0.126 0.0, -0.126 -0.126 -1.0976, -0.126 -0.126 0.0, 0.126 -0.126 -1.0976, 0.126 -0.126 0.0, 0.0669 0.0669 -1.2598, 0.0669 -0.0669 -1.2598, -0.0669 0.0669 -1.2598, -0.0669 -0.0669 -1.2598, 1.0512 -0.0669 2.0866, 1.0512 0.0669 2.0866, 0.9173 -0.0669 2.0866, 0.9173 0.0669 2.0866, 1.1102 -0.126 1.9244, 1.1102 -0.126 0.7874, 1.1102 0.126 1.9244, 1.1102 0.126 0.7874, 0.8583 -0.126 1.9244, 0.8583 -0.126 0.7874, 0.8583 0.126 1.9244, 0.8583 0.126 0.7874, 0.8583 -0.126 -0.3023, 0.8583 -0.126 0.0, 0.8583 0.126 0.0, 0.8583 0.126 -1.0976, 0.8583 -0.126 -1.0976, 0.8583 0.126 -0.7989, 0.8583 -0.126 -0.8788, 0.8583 0.126 -0.3822, 0.8583 0.0831 -0.4446, 0.8583 -0.1759 -0.4122, 0.8583 0.0563 -0.5154, 0.8583 -0.2015 -0.5302, 0.8583 0.0472 -0.5905, 0.8583 -0.2015 -0.6509, 0.8583 0.0563 -0.6657, 0.8583 -0.1759 -0.7689, 0.8583 0.0831 -0.7365, 1.1102 -0.126 -0.8788, 1.1102 -0.126 -1.0976, 1.1102 0.126 -1.0976, 1.1102 0.126 0.0, 1.1102 -0.126 0.0, 1.1102 0.126 -0.3822, 1.1102 -0.126 -0.3023, 1.1102 0.0472 -0.5905, 1.1102 0.0563 -0.5154, 1.1102 -0.1759 -0.4122, 1.1102 0.0831 -0.4446, 1.1102 0.126 -0.7989, 1.1102 0.0831 -0.7365, 1.1102 -0.1759 -0.7689, 1.1102 0.0563 -0.6657, 1.1102 -0.2015 -0.6509, 1.1102 -0.2015 -0.5302, 1.0512 0.0669 -1.2598, 1.0512 -0.0669 -1.2598, 0.9173 0.0669 -1.2598, 0.9173 -0.0669 -1.2598
            ]
        }
        coordIndex [
            0,1,2,-1,2,1,3,-1,4,5,6,-1,6,5,7,-1,8,9,4,-1,4,9,5,-1,10,11,8,-1,8,11,9,-1,6,7,10,-1,10,7,11,-1,12,13,14,-1,14,13,15,-1,16,17,15,-1,18,19,20,-1,20,19,21,-1,22,23,24,-1,24,23,21,-1,21,23,25,-1,21,25,20,-1,15,13,16,-1,16,13,26,-1,16,26,27,-1,27,26,28,-1,27,28,29,-1,29,28,22,-1,29,22,30,-1,30,22,24,-1,19,31,21,-1,21,31,32,-1,32,31,33,-1,14,34,12,-1,12,34,35,-1,33,36,32,-1,32,36,37,-1,32,37,38,-1,38,37,39,-1,38,39,40,-1,40,39,41,-1,40,41,42,-1,42,41,43,-1,42,43,44,-1,44,43,35,-1,35,43,45,-1,35,45,12,-1,46,47,48,-1,48,47,49,-1,47,31,49,-1,49,31,19,-1,46,33,47,-1,47,33,31,-1,18,48,19,-1,19,48,49,-1,48,18,46,-1,46,18,33,-1,10,3,6,-1,6,3,1,-1,8,2,10,-1,10,2,3,-1,0,4,1,-1,1,4,6,-1,4,0,8,-1,8,0,2,-1,50,51,52,-1,52,51,53,-1,54,55,56,-1,56,55,57,-1,58,59,54,-1,54,59,55,-1,60,61,58,-1,58,61,59,-1,56,57,60,-1,60,57,61,-1,62,63,64,-1,64,63,65,-1,66,67,62,-1,62,67,63,-1,68,69,66,-1,66,69,67,-1,64,65,68,-1,68,65,69,-1,70,71,72,-1,72,71,73,-1,74,75,76,-1,76,75,77,-1,78,79,80,-1,80,79,81,-1,82,83,78,-1,78,83,79,-1,84,85,82,-1,82,85,83,-1,80,81,84,-1,84,81,85,-1,86,87,88,-1,89,90,91,-1,91,90,92,-1,88,93,86,-1,86,93,94,-1,86,94,95,-1,95,94,96,-1,95,96,97,-1,97,96,98,-1,97,98,99,-1,99,98,100,-1,99,100,101,-1,101,100,92,-1,92,100,102,-1,92,102,91,-1,103,104,105,-1,106,107,108,-1,108,107,109,-1,110,111,112,-1,112,111,109,-1,109,111,113,-1,109,113,108,-1,105,114,103,-1,103,114,115,-1,103,115,116,-1,116,115,117,-1,116,117,118,-1,118,117,110,-1,118,110,119,-1,119,110,112,-1,120,121,122,-1,122,121,123,-1,71,68,73,-1,73,68,66,-1,70,64,71,-1,71,64,68,-1,62,72,66,-1,66,72,73,-1,72,62,70,-1,70,62,64,-1,60,53,56,-1,56,53,51,-1,58,52,60,-1,60,52,53,-1,50,54,51,-1,51,54,56,-1,54,50,58,-1,58,50,52,-1,121,104,123,-1,123,104,90,-1,120,105,121,-1,121,105,104,-1,89,122,90,-1,90,122,123,-1,122,89,120,-1,120,89,105,-1,84,77,80,-1,80,77,75,-1,82,76,84,-1,84,76,77,-1,74,78,75,-1,75,78,80,-1,78,74,82,-1,82,74,76,-1,36,20,37,-1,37,20,25,-1,37,25,39,-1,39,25,23,-1,39,23,41,-1,41,23,22,-1,41,22,43,-1,43,22,28,-1,43,28,45,-1,45,28,26,-1,45,26,12,-1,12,26,13,-1,35,16,27,-1,35,27,44,-1,44,27,29,-1,44,29,42,-1,42,29,30,-1,42,30,40,-1,40,30,24,-1,40,24,38,-1,38,24,21,-1,38,21,32,-1,93,108,94,-1,94,108,113,-1,94,113,96,-1,96,113,111,-1,96,111,98,-1,98,111,110,-1,98,110,100,-1,100,110,117,-1,100,117,102,-1,102,117,115,-1,102,115,91,-1,91,115,114,-1,92,103,116,-1,92,116,101,-1,101,116,118,-1,101,118,99,-1,99,118,119,-1,99,119,97,-1,97,119,112,-1,97,112,95,-1,95,112,109,-1,95,109,86,-1,
        ]
    }
}